<svg xmlns="http://www.w3.org/2000/svg" xmlns:xlink="http://www.w3.org/1999/xlink" width="684" zoomAndPan="magnify" viewBox="0 0 513 422.99999" height="564" preserveAspectRatio="xMidYMid meet" version="1.0"><defs><clipPath id="b6e1697180"><path d="M 33.28125 0 L 479.53125 0 L 479.53125 423 L 33.28125 423 Z M 33.28125 0 " clip-rule="nonzero"/></clipPath></defs><g clip-path="url(#b6e1697180)"><path fill="#dc5341" d="M 242.707031 118.429688 C 244.078125 118.429688 245.445312 118.363281 246.808594 118.226562 C 248.175781 118.09375 249.53125 117.894531 250.875 117.625 C 252.222656 117.359375 253.550781 117.027344 254.863281 116.628906 C 256.175781 116.230469 257.464844 115.769531 258.734375 115.246094 C 260 114.71875 261.238281 114.136719 262.449219 113.488281 C 263.660156 112.84375 264.832031 112.136719 265.972656 111.375 C 267.113281 110.613281 268.214844 109.796875 269.277344 108.929688 C 270.335938 108.058594 271.351562 107.140625 272.320312 106.167969 C 273.292969 105.199219 274.210938 104.183594 275.082031 103.125 C 275.953125 102.066406 276.769531 100.964844 277.53125 99.824219 C 278.292969 98.683594 279 97.507812 279.644531 96.300781 C 280.292969 95.089844 280.878906 93.851562 281.402344 92.582031 C 281.929688 91.316406 282.390625 90.027344 282.789062 88.714844 C 283.1875 87.402344 283.519531 86.074219 283.789062 84.726562 C 284.054688 83.382812 284.257812 82.027344 284.390625 80.664062 C 284.523438 79.296875 284.59375 77.929688 284.59375 76.558594 C 284.59375 75.1875 284.527344 73.816406 284.390625 72.453125 C 284.257812 71.085938 284.054688 69.730469 283.789062 68.386719 C 283.519531 67.042969 283.1875 65.710938 282.789062 64.398438 C 282.390625 63.085938 281.929688 61.796875 281.40625 60.53125 C 280.882812 59.261719 280.296875 58.023438 279.648438 56.816406 C 279.003906 55.605469 278.296875 54.429688 277.535156 53.289062 C 276.773438 52.148438 275.957031 51.046875 275.085938 49.988281 C 274.21875 48.929688 273.296875 47.914062 272.328125 46.941406 C 271.359375 45.972656 270.34375 45.054688 269.28125 44.183594 C 268.222656 43.3125 267.121094 42.496094 265.980469 41.734375 C 264.839844 40.972656 263.664062 40.269531 262.457031 39.621094 C 261.246094 38.976562 260.007812 38.390625 258.742188 37.863281 C 257.472656 37.339844 256.183594 36.878906 254.871094 36.480469 C 253.558594 36.082031 252.230469 35.75 250.882812 35.480469 C 249.539062 35.214844 248.183594 35.011719 246.816406 34.878906 C 245.453125 34.746094 244.085938 34.675781 242.714844 34.679688 C 241.339844 34.679688 239.972656 34.746094 238.609375 34.878906 C 237.242188 35.015625 235.886719 35.214844 234.542969 35.484375 C 233.199219 35.75 231.867188 36.085938 230.554688 36.484375 C 229.242188 36.882812 227.953125 37.34375 226.6875 37.867188 C 225.417969 38.394531 224.179688 38.980469 222.972656 39.625 C 221.761719 40.273438 220.585938 40.976562 219.445312 41.738281 C 218.304688 42.5 217.207031 43.316406 216.144531 44.1875 C 215.085938 45.058594 214.070312 45.976562 213.101562 46.949219 C 212.132812 47.917969 211.210938 48.933594 210.339844 49.996094 C 209.472656 51.054688 208.65625 52.15625 207.894531 53.296875 C 207.132812 54.4375 206.429688 55.613281 205.78125 56.820312 C 205.136719 58.03125 204.550781 59.269531 204.027344 60.539062 C 203.5 61.804688 203.039062 63.09375 202.640625 64.40625 C 202.246094 65.71875 201.910156 67.050781 201.644531 68.394531 C 201.378906 69.738281 201.175781 71.09375 201.042969 72.460938 C 200.910156 73.824219 200.839844 75.195312 200.84375 76.566406 C 200.84375 77.9375 200.914062 79.304688 201.050781 80.667969 C 201.183594 82.03125 201.386719 83.382812 201.65625 84.726562 C 201.925781 86.074219 202.257812 87.398438 202.65625 88.710938 C 203.058594 90.023438 203.519531 91.3125 204.042969 92.578125 C 204.570312 93.84375 205.15625 95.078125 205.800781 96.289062 C 206.449219 97.496094 207.152344 98.671875 207.914062 99.808594 C 208.675781 100.949219 209.492188 102.046875 210.363281 103.105469 C 211.230469 104.167969 212.152344 105.179688 213.121094 106.148438 C 214.089844 107.117188 215.105469 108.039062 216.164062 108.90625 C 217.222656 109.777344 218.320312 110.59375 219.460938 111.355469 C 220.601562 112.117188 221.773438 112.820312 222.984375 113.46875 C 224.191406 114.113281 225.429688 114.699219 226.695312 115.226562 C 227.960938 115.75 229.25 116.214844 230.558594 116.613281 C 231.871094 117.011719 233.199219 117.34375 234.542969 117.613281 C 235.886719 117.882812 237.238281 118.085938 238.605469 118.222656 C 239.96875 118.359375 241.335938 118.425781 242.707031 118.429688 Z M 242.707031 46.886719 C 243.675781 46.886719 244.644531 46.933594 245.613281 47.027344 C 246.582031 47.121094 247.539062 47.265625 248.492188 47.453125 C 249.445312 47.644531 250.386719 47.878906 251.316406 48.160156 C 252.246094 48.441406 253.160156 48.769531 254.058594 49.140625 C 254.957031 49.511719 255.835938 49.925781 256.691406 50.382812 C 257.550781 50.839844 258.382812 51.339844 259.191406 51.878906 C 260 52.417969 260.777344 52.996094 261.527344 53.613281 C 262.28125 54.230469 263 54.878906 263.6875 55.566406 C 264.375 56.253906 265.027344 56.972656 265.644531 57.722656 C 266.261719 58.472656 266.839844 59.253906 267.378906 60.0625 C 267.917969 60.867188 268.417969 61.699219 268.875 62.558594 C 269.335938 63.414062 269.75 64.292969 270.121094 65.1875 C 270.496094 66.085938 270.820312 67 271.105469 67.929688 C 271.386719 68.859375 271.625 69.800781 271.8125 70.753906 C 272.003906 71.707031 272.144531 72.667969 272.242188 73.632812 C 272.335938 74.601562 272.386719 75.570312 272.386719 76.542969 C 272.386719 77.511719 272.339844 78.484375 272.242188 79.449219 C 272.148438 80.417969 272.007812 81.375 271.816406 82.328125 C 271.628906 83.28125 271.394531 84.222656 271.113281 85.152344 C 270.832031 86.085938 270.503906 87 270.132812 87.894531 C 269.761719 88.792969 269.347656 89.671875 268.886719 90.527344 C 268.429688 91.386719 267.933594 92.21875 267.394531 93.027344 C 266.851562 93.835938 266.277344 94.613281 265.660156 95.367188 C 265.042969 96.117188 264.390625 96.835938 263.703125 97.523438 C 263.019531 98.210938 262.300781 98.863281 261.546875 99.480469 C 260.796875 100.097656 260.019531 100.675781 259.210938 101.214844 C 258.402344 101.753906 257.570312 102.253906 256.714844 102.710938 C 255.855469 103.171875 254.980469 103.585938 254.082031 103.957031 C 253.183594 104.332031 252.273438 104.660156 251.34375 104.941406 C 250.410156 105.222656 249.472656 105.460938 248.519531 105.648438 C 247.566406 105.839844 246.605469 105.980469 245.636719 106.078125 C 244.671875 106.171875 243.703125 106.222656 242.730469 106.222656 C 241.757812 106.222656 240.789062 106.175781 239.820312 106.078125 C 238.855469 105.984375 237.894531 105.84375 236.941406 105.652344 C 235.988281 105.464844 235.046875 105.230469 234.117188 104.949219 C 233.1875 104.664062 232.273438 104.339844 231.375 103.96875 C 230.476562 103.597656 229.601562 103.183594 228.742188 102.722656 C 227.886719 102.265625 227.054688 101.769531 226.246094 101.226562 C 225.4375 100.6875 224.65625 100.109375 223.90625 99.496094 C 223.15625 98.878906 222.4375 98.226562 221.75 97.539062 C 221.0625 96.855469 220.410156 96.136719 219.792969 95.382812 C 219.175781 94.632812 218.597656 93.855469 218.058594 93.046875 C 217.515625 92.238281 217.019531 91.40625 216.558594 90.550781 C 216.101562 89.691406 215.6875 88.816406 215.3125 87.917969 C 214.941406 87.019531 214.613281 86.105469 214.332031 85.175781 C 214.050781 84.246094 213.8125 83.304688 213.621094 82.351562 C 213.433594 81.398438 213.289062 80.441406 213.195312 79.472656 C 213.097656 78.507812 213.050781 77.535156 213.050781 76.566406 C 213.050781 75.59375 213.101562 74.625 213.195312 73.660156 C 213.292969 72.691406 213.4375 71.734375 213.625 70.78125 C 213.816406 69.828125 214.050781 68.886719 214.335938 67.957031 C 214.617188 67.027344 214.945312 66.117188 215.316406 65.21875 C 215.6875 64.320312 216.101562 63.445312 216.5625 62.589844 C 217.019531 61.730469 217.519531 60.898438 218.058594 60.09375 C 218.597656 59.285156 219.175781 58.503906 219.789062 57.753906 C 220.40625 57.003906 221.058594 56.285156 221.746094 55.597656 C 222.429688 54.910156 223.148438 54.257812 223.898438 53.640625 C 224.648438 53.027344 225.429688 52.445312 226.234375 51.90625 C 227.042969 51.367188 227.875 50.867188 228.730469 50.410156 C 229.585938 49.949219 230.464844 49.535156 231.359375 49.160156 C 232.257812 48.789062 233.171875 48.460938 234.097656 48.175781 C 235.027344 47.894531 235.96875 47.65625 236.921875 47.464844 C 237.875 47.277344 238.832031 47.132812 239.796875 47.035156 C 240.765625 46.9375 241.734375 46.886719 242.707031 46.886719 Z M 479.683594 142.449219 C 479.679688 141.394531 479.605469 140.34375 479.449219 139.300781 C 479.292969 138.257812 479.0625 137.234375 478.757812 136.226562 C 478.449219 135.214844 478.070312 134.234375 477.621094 133.28125 C 477.167969 132.328125 476.652344 131.414062 476.066406 130.539062 C 475.480469 129.660156 474.832031 128.832031 474.125 128.050781 C 473.417969 127.269531 472.65625 126.546875 471.839844 125.878906 C 471.023438 125.207031 470.164062 124.601562 469.261719 124.0625 C 468.355469 123.519531 467.417969 123.046875 466.445312 122.644531 C 465.46875 122.238281 464.472656 121.910156 463.449219 121.652344 C 462.425781 121.398438 461.390625 121.21875 460.339844 121.113281 C 459.292969 121.011719 458.242188 120.984375 457.1875 121.035156 C 456.136719 121.085938 455.089844 121.214844 454.058594 121.421875 C 453.023438 121.625 452.011719 121.90625 451.015625 122.261719 C 450.023438 122.617188 449.0625 123.042969 448.132812 123.539062 C 447.203125 124.035156 446.316406 124.597656 445.46875 125.222656 C 444.621094 125.851562 443.824219 126.539062 443.078125 127.285156 L 393.871094 176.492188 L 385.316406 167.941406 C 385.710938 166.273438 385.992188 164.585938 386.171875 162.878906 C 386.347656 161.175781 386.414062 159.464844 386.375 157.75 C 386.332031 156.035156 386.183594 154.332031 385.925781 152.636719 C 385.664062 150.941406 385.300781 149.269531 384.828125 147.621094 C 384.355469 145.976562 383.78125 144.363281 383.101562 142.789062 C 382.425781 141.214844 381.652344 139.6875 380.777344 138.210938 C 379.90625 136.734375 378.941406 135.320312 377.890625 133.96875 C 376.835938 132.613281 375.703125 131.335938 374.488281 130.125 C 373.078125 128.738281 371.578125 127.464844 369.988281 126.292969 C 368.398438 125.125 366.730469 124.074219 364.988281 123.148438 C 363.246094 122.21875 361.445312 121.417969 359.585938 120.75 C 357.726562 120.082031 355.832031 119.550781 353.898438 119.152344 C 351.960938 118.757812 350.007812 118.503906 348.039062 118.390625 C 346.066406 118.277344 344.097656 118.304688 342.128906 118.476562 C 340.164062 118.644531 338.21875 118.957031 336.292969 119.40625 C 334.371094 119.859375 332.492188 120.445312 330.652344 121.167969 C 330.421875 121.257812 330.195312 121.367188 329.972656 121.488281 C 329.753906 121.609375 329.542969 121.746094 329.339844 121.894531 C 329.136719 122.039062 328.941406 122.199219 328.757812 122.371094 C 328.574219 122.542969 328.402344 122.726562 328.242188 122.917969 C 328.078125 123.113281 327.929688 123.316406 327.796875 123.527344 C 327.660156 123.738281 327.535156 123.957031 327.425781 124.183594 C 327.316406 124.410156 327.222656 124.640625 327.144531 124.878906 C 327.0625 125.117188 326.996094 125.359375 326.945312 125.605469 C 326.898438 125.851562 326.863281 126.101562 326.84375 126.351562 C 326.820312 126.601562 326.816406 126.855469 326.828125 127.105469 C 326.839844 127.355469 326.867188 127.605469 326.910156 127.855469 C 326.953125 128.101562 327.007812 128.347656 327.082031 128.585938 C 327.152344 128.828125 327.242188 129.0625 327.34375 129.292969 C 327.445312 129.523438 327.558594 129.746094 327.6875 129.960938 C 327.816406 130.175781 327.957031 130.382812 328.113281 130.582031 C 328.269531 130.78125 328.433594 130.96875 328.613281 131.148438 L 348.632812 151.171875 L 346.429688 159.414062 L 338.210938 161.617188 L 318.191406 141.59375 C 318.015625 141.417969 317.828125 141.25 317.628906 141.097656 C 317.429688 140.941406 317.222656 140.800781 317.007812 140.671875 C 316.792969 140.542969 316.570312 140.429688 316.339844 140.328125 C 316.109375 140.226562 315.875 140.136719 315.636719 140.066406 C 315.394531 139.992188 315.152344 139.9375 314.902344 139.894531 C 314.65625 139.851562 314.40625 139.824219 314.15625 139.8125 C 313.90625 139.800781 313.65625 139.804688 313.40625 139.824219 C 313.152344 139.84375 312.90625 139.878906 312.660156 139.929688 C 312.414062 139.976562 312.171875 140.042969 311.933594 140.125 C 311.695312 140.203125 311.464844 140.296875 311.238281 140.40625 C 311.011719 140.515625 310.792969 140.636719 310.578125 140.773438 C 310.367188 140.90625 310.167969 141.054688 309.972656 141.214844 C 309.78125 141.378906 309.597656 141.550781 309.425781 141.730469 C 309.253906 141.914062 309.09375 142.109375 308.945312 142.3125 C 308.796875 142.515625 308.664062 142.726562 308.539062 142.945312 C 308.417969 143.164062 308.3125 143.390625 308.21875 143.621094 C 307.488281 145.457031 306.898438 147.335938 306.445312 149.257812 C 305.988281 151.179688 305.675781 153.125 305.5 155.089844 C 305.328125 157.058594 305.296875 159.027344 305.410156 161 C 305.519531 162.96875 305.773438 164.921875 306.167969 166.859375 C 306.5625 168.792969 307.09375 170.6875 307.761719 172.546875 C 308.429688 174.40625 309.230469 176.203125 310.160156 177.945312 C 311.089844 179.6875 312.136719 181.355469 313.308594 182.945312 C 314.480469 184.535156 315.757812 186.03125 317.144531 187.4375 C 318.355469 188.65625 319.636719 189.792969 320.988281 190.847656 C 322.34375 191.902344 323.757812 192.863281 325.234375 193.738281 C 326.714844 194.609375 328.238281 195.386719 329.816406 196.066406 C 331.390625 196.742188 333.003906 197.320312 334.65625 197.789062 C 336.304688 198.261719 337.976562 198.628906 339.671875 198.886719 C 341.371094 199.144531 343.074219 199.296875 344.792969 199.335938 C 346.507812 199.375 348.21875 199.308594 349.925781 199.128906 C 351.632812 198.949219 353.320312 198.664062 354.988281 198.269531 L 363.539062 206.820312 L 331.007812 239.351562 C 330.089844 240.269531 329.523438 241.371094 329.308594 242.652344 L 324.90625 268.746094 C 324.828125 269.226562 324.804688 269.710938 324.835938 270.195312 C 324.871094 270.683594 324.964844 271.15625 325.113281 271.621094 C 325.257812 272.085938 325.460938 272.523438 325.714844 272.941406 C 325.96875 273.355469 326.265625 273.734375 326.609375 274.078125 C 326.953125 274.421875 327.335938 274.722656 327.75 274.976562 C 328.164062 275.230469 328.605469 275.429688 329.070312 275.578125 C 329.53125 275.726562 330.007812 275.816406 330.492188 275.851562 C 330.980469 275.886719 331.460938 275.863281 331.941406 275.78125 L 358.039062 271.382812 C 359.320312 271.167969 360.421875 270.601562 361.339844 269.679688 L 393.859375 237.164062 L 429.835938 273.136719 C 431.574219 274.886719 433.585938 276.230469 435.863281 277.175781 C 438.144531 278.117188 440.515625 278.585938 442.980469 278.578125 L 443.007812 278.578125 C 445.464844 278.582031 447.832031 278.117188 450.105469 277.171875 C 452.375 276.230469 454.378906 274.882812 456.109375 273.136719 L 460.164062 269.085938 C 460.597656 268.65625 461.003906 268.207031 461.390625 267.734375 C 461.773438 267.265625 462.136719 266.777344 462.476562 266.269531 C 462.8125 265.765625 463.125 265.242188 463.410156 264.707031 C 463.699219 264.167969 463.957031 263.621094 464.191406 263.058594 C 464.421875 262.496094 464.628906 261.921875 464.804688 261.339844 C 464.980469 260.757812 465.128906 260.167969 465.246094 259.570312 C 465.367188 258.976562 465.457031 258.375 465.515625 257.769531 C 465.574219 257.164062 465.605469 256.554688 465.605469 255.949219 C 465.605469 255.339844 465.574219 254.730469 465.515625 254.125 C 465.457031 253.519531 465.367188 252.921875 465.246094 252.324219 C 465.128906 251.726562 464.980469 251.136719 464.804688 250.554688 C 464.628906 249.972656 464.421875 249.398438 464.191406 248.835938 C 463.957031 248.277344 463.699219 247.726562 463.410156 247.191406 C 463.125 246.652344 462.8125 246.132812 462.476562 245.625 C 462.136719 245.121094 461.773438 244.632812 461.390625 244.160156 C 461.003906 243.691406 460.597656 243.238281 460.164062 242.808594 L 424.1875 206.835938 L 473.398438 157.621094 C 474.398438 156.628906 475.292969 155.546875 476.078125 154.375 C 476.863281 153.203125 477.527344 151.96875 478.066406 150.664062 C 478.605469 149.363281 479.011719 148.019531 479.28125 146.636719 C 479.554688 145.253906 479.6875 143.859375 479.683594 142.449219 Z M 361.09375 187.109375 C 360.691406 186.710938 360.242188 186.371094 359.746094 186.09375 C 359.25 185.820312 358.726562 185.617188 358.171875 185.484375 C 357.621094 185.355469 357.058594 185.304688 356.492188 185.332031 C 355.925781 185.355469 355.371094 185.460938 354.835938 185.640625 C 353.59375 186.074219 352.324219 186.417969 351.035156 186.667969 C 349.746094 186.921875 348.441406 187.082031 347.128906 187.152344 C 345.816406 187.21875 344.503906 187.195312 343.195312 187.078125 C 341.882812 186.960938 340.589844 186.75 339.308594 186.449219 C 338.027344 186.148438 336.777344 185.757812 335.550781 185.277344 C 334.328125 184.800781 333.140625 184.238281 331.996094 183.589844 C 330.851562 182.941406 329.757812 182.21875 328.714844 181.417969 C 327.671875 180.613281 326.691406 179.742188 325.773438 178.804688 C 324.433594 177.445312 323.238281 175.972656 322.195312 174.378906 C 321.148438 172.78125 320.273438 171.101562 319.5625 169.328125 C 318.855469 167.558594 318.328125 165.734375 317.988281 163.859375 C 317.644531 161.984375 317.492188 160.09375 317.527344 158.1875 L 332.074219 172.738281 C 332.453125 173.117188 332.875 173.4375 333.339844 173.707031 C 333.804688 173.976562 334.292969 174.179688 334.8125 174.316406 C 335.328125 174.457031 335.855469 174.523438 336.390625 174.523438 C 336.925781 174.523438 337.453125 174.457031 337.972656 174.316406 L 352.996094 170.289062 C 353.515625 170.148438 354.003906 169.945312 354.46875 169.679688 C 354.933594 169.410156 355.355469 169.085938 355.734375 168.707031 C 356.113281 168.328125 356.433594 167.90625 356.703125 167.445312 C 356.972656 166.980469 357.175781 166.488281 357.3125 165.972656 L 361.339844 150.921875 C 361.480469 150.402344 361.550781 149.878906 361.546875 149.34375 C 361.546875 148.804688 361.480469 148.28125 361.339844 147.761719 C 361.203125 147.246094 361 146.753906 360.730469 146.289062 C 360.464844 145.828125 360.140625 145.40625 359.761719 145.027344 L 345.230469 130.5 C 345.367188 130.5 345.503906 130.5 345.640625 130.5 C 347.515625 130.496094 349.367188 130.671875 351.207031 131.03125 C 353.046875 131.390625 354.832031 131.921875 356.566406 132.632812 C 358.296875 133.339844 359.945312 134.210938 361.507812 135.242188 C 363.074219 136.273438 364.519531 137.445312 365.855469 138.761719 C 366.792969 139.679688 367.664062 140.660156 368.464844 141.703125 C 369.261719 142.746094 369.988281 143.839844 370.632812 144.984375 C 371.277344 146.128906 371.839844 147.3125 372.316406 148.535156 C 372.796875 149.757812 373.183594 151.011719 373.484375 152.289062 C 373.785156 153.570312 373.996094 154.863281 374.113281 156.171875 C 374.230469 157.480469 374.257812 158.789062 374.1875 160.101562 C 374.121094 161.414062 373.960938 162.714844 373.707031 164.003906 C 373.457031 165.292969 373.117188 166.558594 372.683594 167.800781 C 372.503906 168.339844 372.402344 168.890625 372.375 169.457031 C 372.351562 170.023438 372.402344 170.582031 372.53125 171.136719 C 372.664062 171.6875 372.867188 172.210938 373.140625 172.707031 C 373.417969 173.203125 373.757812 173.648438 374.15625 174.050781 L 385.238281 185.128906 L 372.171875 198.195312 Z M 451.542969 251.457031 C 451.835938 251.753906 452.097656 252.074219 452.328125 252.421875 C 452.558594 252.769531 452.753906 253.136719 452.914062 253.523438 C 453.074219 253.910156 453.191406 254.308594 453.273438 254.71875 C 453.355469 255.128906 453.394531 255.542969 453.394531 255.960938 C 453.394531 256.375 453.351562 256.789062 453.269531 257.199219 C 453.1875 257.609375 453.070312 258.007812 452.910156 258.394531 C 452.75 258.777344 452.554688 259.144531 452.320312 259.492188 C 452.089844 259.839844 451.828125 260.160156 451.53125 260.457031 L 447.464844 264.519531 C 446.875 265.117188 446.191406 265.574219 445.414062 265.898438 C 444.636719 266.21875 443.828125 266.378906 442.988281 266.375 L 442.980469 266.375 C 442.132812 266.378906 441.320312 266.21875 440.535156 265.894531 C 439.753906 265.570312 439.0625 265.109375 438.464844 264.511719 L 402.488281 228.535156 L 415.554688 215.46875 Z M 354.085938 259.671875 L 338.371094 262.320312 L 341.019531 246.605469 L 439.722656 147.90625 L 452.785156 160.96875 Z M 464.773438 148.980469 L 461.417969 152.335938 L 448.351562 139.273438 L 451.71875 135.90625 C 452.148438 135.480469 452.613281 135.101562 453.117188 134.765625 C 453.621094 134.429688 454.152344 134.148438 454.714844 133.917969 C 455.273438 133.6875 455.847656 133.511719 456.441406 133.394531 C 457.035156 133.277344 457.636719 133.21875 458.242188 133.21875 C 458.847656 133.21875 459.445312 133.277344 460.039062 133.394531 C 460.632812 133.511719 461.210938 133.6875 461.769531 133.917969 C 462.328125 134.148438 462.859375 134.429688 463.363281 134.765625 C 463.867188 135.101562 464.335938 135.480469 464.765625 135.90625 L 464.78125 135.925781 C 465.210938 136.355469 465.589844 136.820312 465.925781 137.328125 C 466.261719 137.832031 466.542969 138.363281 466.773438 138.921875 C 467.003906 139.484375 467.179688 140.0625 467.296875 140.65625 C 467.414062 141.25 467.472656 141.847656 467.46875 142.453125 C 467.46875 143.058594 467.410156 143.660156 467.292969 144.253906 C 467.175781 144.847656 467 145.425781 466.769531 145.984375 C 466.539062 146.542969 466.253906 147.078125 465.917969 147.582031 C 465.582031 148.085938 465.203125 148.550781 464.773438 148.980469 Z M 330.53125 343.425781 C 326.164062 309.207031 301.976562 285.308594 271.714844 285.308594 L 213.714844 285.308594 C 183.46875 285.308594 159.277344 309.207031 154.875 343.425781 L 148.15625 396.042969 C 147.222656 403.398438 149.234375 410.5 153.671875 415.539062 C 154.734375 416.722656 155.910156 417.785156 157.203125 418.714844 C 158.492188 419.648438 159.867188 420.433594 161.328125 421.070312 C 162.789062 421.703125 164.300781 422.179688 165.863281 422.488281 C 167.425781 422.796875 169.003906 422.9375 170.59375 422.90625 L 314.839844 422.90625 C 316.433594 422.9375 318.011719 422.796875 319.574219 422.488281 C 321.136719 422.175781 322.648438 421.703125 324.109375 421.066406 C 325.570312 420.429688 326.949219 419.644531 328.238281 418.710938 C 329.53125 417.773438 330.707031 416.714844 331.769531 415.523438 C 336.203125 410.484375 338.199219 403.378906 337.253906 396.035156 Z M 322.597656 407.464844 C 321.605469 408.546875 320.433594 409.375 319.074219 409.9375 C 317.71875 410.503906 316.308594 410.757812 314.839844 410.699219 L 170.59375 410.699219 C 169.125 410.757812 167.714844 410.503906 166.355469 409.9375 C 165 409.375 163.824219 408.550781 162.832031 407.464844 C 160.710938 405.058594 159.773438 401.453125 160.265625 397.585938 L 166.984375 344.972656 C 169.925781 322.117188 185.800781 297.515625 213.714844 297.515625 L 271.714844 297.515625 C 295.644531 297.515625 314.851562 317.027344 318.417969 344.96875 L 325.140625 397.585938 C 325.644531 401.460938 324.714844 405.058594 322.601562 407.464844 Z M 174.496094 95.792969 L 183.335938 98.242188 C 183.929688 99.878906 184.613281 101.539062 185.394531 103.222656 L 180.859375 111.214844 C 180.371094 112.066406 180.019531 112.964844 179.796875 113.917969 C 179.578125 114.875 179.5 115.839844 179.566406 116.816406 C 179.628906 117.792969 179.832031 118.738281 180.175781 119.652344 C 180.519531 120.570312 180.988281 121.417969 181.582031 122.195312 C 185.980469 128.105469 191.132812 133.257812 197.042969 137.65625 C 197.824219 138.25 198.675781 138.71875 199.597656 139.0625 C 200.519531 139.40625 201.46875 139.613281 202.449219 139.675781 C 203.429688 139.742188 204.398438 139.664062 205.355469 139.445312 C 206.3125 139.226562 207.21875 138.875 208.074219 138.390625 L 216.046875 133.875 C 217.722656 134.648438 219.390625 135.339844 221.023438 135.933594 L 223.488281 144.816406 C 223.753906 145.757812 224.148438 146.640625 224.667969 147.46875 C 225.1875 148.292969 225.816406 149.03125 226.550781 149.671875 C 227.289062 150.316406 228.101562 150.84375 228.988281 151.25 C 229.875 151.660156 230.804688 151.933594 231.773438 152.070312 C 239.085938 153.125 246.398438 153.125 253.710938 152.0625 C 254.679688 151.925781 255.605469 151.652344 256.488281 151.242188 C 257.375 150.832031 258.183594 150.304688 258.914062 149.65625 C 259.640625 149.011719 260.265625 148.269531 260.777344 147.441406 C 261.289062 146.613281 261.671875 145.726562 261.925781 144.785156 L 264.402344 135.933594 C 266.027344 135.34375 267.667969 134.660156 269.371094 133.871094 L 277.351562 138.40625 C 278.203125 138.894531 279.109375 139.246094 280.066406 139.46875 C 281.023438 139.691406 281.992188 139.769531 282.972656 139.703125 C 283.953125 139.636719 284.902344 139.433594 285.820312 139.085938 C 286.738281 138.742188 287.589844 138.269531 288.371094 137.671875 C 294.273438 133.269531 299.425781 128.117188 303.832031 122.214844 C 304.421875 121.429688 304.890625 120.582031 305.230469 119.660156 C 305.570312 118.742188 305.773438 117.792969 305.835938 116.816406 C 305.898438 115.835938 305.820312 114.871094 305.601562 113.914062 C 305.378906 112.960938 305.023438 112.054688 304.539062 111.203125 L 300.03125 103.207031 C 300.757812 101.652344 301.4375 100.015625 302.089844 98.238281 L 310.933594 95.792969 L 310.980469 95.777344 C 311.921875 95.519531 312.808594 95.128906 313.636719 94.609375 C 314.464844 94.089844 315.199219 93.460938 315.839844 92.726562 C 316.484375 91.988281 317.007812 91.175781 317.410156 90.285156 C 317.816406 89.394531 318.082031 88.464844 318.210938 87.496094 C 319.265625 80.214844 319.265625 72.929688 318.214844 65.648438 C 318.085938 64.671875 317.820312 63.734375 317.414062 62.835938 C 317.007812 61.941406 316.480469 61.121094 315.832031 60.378906 C 315.183594 59.640625 314.445312 59.007812 313.609375 58.484375 C 312.773438 57.960938 311.882812 57.574219 310.933594 57.3125 L 302.09375 54.867188 C 301.4375 53.085938 300.757812 51.445312 300.03125 49.90625 L 304.503906 41.988281 C 305.003906 41.132812 305.371094 40.226562 305.601562 39.265625 C 305.828125 38.304688 305.914062 37.328125 305.855469 36.34375 C 305.796875 35.355469 305.59375 34.398438 305.25 33.472656 C 304.910156 32.542969 304.4375 31.6875 303.839844 30.898438 C 299.417969 24.988281 294.25 19.824219 288.332031 15.40625 C 287.550781 14.8125 286.703125 14.347656 285.78125 14.007812 C 284.863281 13.667969 283.914062 13.46875 282.9375 13.410156 C 281.957031 13.347656 280.992188 13.433594 280.039062 13.65625 C 279.085938 13.882812 278.183594 14.242188 277.335938 14.734375 L 269.355469 19.242188 C 267.78125 18.503906 266.148438 17.820312 264.398438 17.175781 L 261.941406 8.378906 C 261.691406 7.425781 261.304688 6.527344 260.785156 5.6875 C 260.269531 4.847656 259.640625 4.101562 258.902344 3.449219 C 258.164062 2.792969 257.34375 2.261719 256.449219 1.851562 C 255.550781 1.4375 254.613281 1.164062 253.636719 1.03125 C 246.332031 0.00390625 239.023438 0.0078125 231.71875 1.042969 C 230.753906 1.1875 229.828125 1.464844 228.941406 1.875 C 228.054688 2.289062 227.246094 2.816406 226.515625 3.464844 C 225.78125 4.113281 225.15625 4.851562 224.640625 5.679688 C 224.125 6.511719 223.734375 7.394531 223.476562 8.339844 L 221.03125 17.175781 C 219.257812 17.828125 217.617188 18.507812 216.0625 19.234375 L 208.128906 14.761719 C 207.277344 14.269531 206.371094 13.910156 205.414062 13.683594 C 204.457031 13.457031 203.484375 13.371094 202.503906 13.429688 C 201.519531 13.488281 200.566406 13.6875 199.644531 14.027344 C 198.71875 14.367188 197.863281 14.832031 197.078125 15.421875 C 191.171875 19.824219 186.015625 24.976562 181.613281 30.878906 C 181.011719 31.660156 180.539062 32.515625 180.191406 33.4375 C 179.84375 34.363281 179.636719 35.316406 179.570312 36.300781 C 179.503906 37.285156 179.585938 38.257812 179.808594 39.21875 C 180.03125 40.179688 180.386719 41.089844 180.878906 41.945312 L 185.398438 49.898438 C 184.605469 51.605469 183.921875 53.246094 183.335938 54.867188 L 174.453125 57.332031 C 173.511719 57.589844 172.625 57.976562 171.792969 58.496094 C 170.964844 59.015625 170.226562 59.644531 169.582031 60.382812 C 168.933594 61.117188 168.410156 61.929688 168.003906 62.820312 C 167.597656 63.714844 167.328125 64.644531 167.195312 65.613281 C 166.144531 72.898438 166.144531 80.183594 167.195312 87.464844 C 167.328125 88.441406 167.597656 89.378906 168.003906 90.277344 C 168.414062 91.171875 168.941406 91.992188 169.589844 92.730469 C 170.242188 93.472656 170.984375 94.101562 171.820312 94.625 C 172.652344 95.144531 173.546875 95.535156 174.496094 95.792969 Z M 179.097656 68.707031 L 187.574219 66.355469 C 188.378906 66.148438 189.140625 65.84375 189.867188 65.445312 C 190.59375 65.046875 191.261719 64.5625 191.867188 63.996094 C 192.472656 63.433594 193 62.800781 193.445312 62.101562 C 193.894531 61.40625 194.25 60.664062 194.511719 59.875 C 195.175781 57.945312 195.957031 56.058594 196.855469 54.222656 C 197.214844 53.488281 197.480469 52.722656 197.65625 51.921875 C 197.828125 51.121094 197.902344 50.3125 197.875 49.492188 C 197.851562 48.675781 197.726562 47.871094 197.503906 47.082031 C 197.28125 46.296875 196.96875 45.546875 196.5625 44.835938 L 192.191406 37.140625 C 195.429688 32.984375 199.125 29.285156 203.277344 26.046875 L 211.019531 30.410156 C 211.730469 30.816406 212.484375 31.132812 213.273438 31.355469 C 214.0625 31.578125 214.867188 31.703125 215.6875 31.726562 C 216.507812 31.75 217.316406 31.675781 218.121094 31.5 C 218.921875 31.324219 219.6875 31.050781 220.421875 30.6875 C 222.257812 29.789062 224.140625 29.007812 226.070312 28.339844 C 226.84375 28.074219 227.574219 27.71875 228.261719 27.277344 C 228.945312 26.832031 229.570312 26.3125 230.132812 25.71875 C 230.691406 25.125 231.171875 24.46875 231.574219 23.757812 C 231.972656 23.042969 232.28125 22.292969 232.5 21.503906 L 234.871094 12.941406 C 240.09375 12.316406 245.316406 12.316406 250.539062 12.941406 L 252.921875 21.46875 C 253.132812 22.261719 253.433594 23.015625 253.828125 23.734375 C 254.226562 24.449219 254.703125 25.109375 255.261719 25.707031 C 255.824219 26.308594 256.445312 26.828125 257.136719 27.273438 C 257.824219 27.71875 258.558594 28.070312 259.335938 28.332031 C 261.289062 29.011719 263.191406 29.808594 265.046875 30.71875 C 265.78125 31.078125 266.546875 31.34375 267.347656 31.515625 C 268.148438 31.683594 268.957031 31.757812 269.773438 31.730469 C 270.589844 31.703125 271.390625 31.578125 272.179688 31.351562 C 272.964844 31.128906 273.714844 30.816406 274.421875 30.410156 L 282.148438 26.042969 C 286.296875 29.285156 289.988281 32.980469 293.230469 37.125 L 288.859375 44.863281 C 288.453125 45.574219 288.140625 46.320312 287.917969 47.105469 C 287.695312 47.890625 287.570312 48.691406 287.546875 49.507812 C 287.519531 50.324219 287.589844 51.128906 287.761719 51.929688 C 287.933594 52.726562 288.195312 53.492188 288.554688 54.226562 L 288.597656 54.3125 C 289.492188 56.128906 290.269531 57.996094 290.933594 59.910156 C 291.191406 60.6875 291.539062 61.417969 291.980469 62.109375 C 292.421875 62.800781 292.941406 63.425781 293.535156 63.988281 C 294.132812 64.546875 294.789062 65.027344 295.503906 65.425781 C 296.222656 65.824219 296.972656 66.128906 297.765625 66.339844 L 306.308594 68.703125 C 306.953125 73.9375 306.953125 79.171875 306.308594 84.40625 L 297.730469 86.78125 C 296.949219 86.996094 296.203125 87.304688 295.496094 87.703125 C 294.785156 88.101562 294.136719 88.578125 293.546875 89.136719 C 292.953125 89.691406 292.4375 90.3125 292 90.996094 C 291.558594 91.679688 291.207031 92.402344 290.945312 93.171875 C 290.269531 95.117188 289.480469 97.015625 288.574219 98.867188 C 288.210938 99.601562 287.941406 100.367188 287.765625 101.167969 C 287.59375 101.96875 287.519531 102.777344 287.542969 103.597656 C 287.570312 104.417969 287.691406 105.21875 287.917969 106.007812 C 288.140625 106.796875 288.453125 107.542969 288.863281 108.253906 L 293.222656 115.996094 C 289.980469 120.148438 286.285156 123.84375 282.128906 127.078125 L 274.414062 122.695312 C 273.703125 122.292969 272.953125 121.980469 272.167969 121.761719 C 271.378906 121.539062 270.578125 121.417969 269.761719 121.394531 C 268.945312 121.371094 268.136719 121.445312 267.339844 121.617188 C 266.539062 121.792969 265.773438 122.058594 265.039062 122.417969 C 263.195312 123.320312 261.304688 124.105469 259.367188 124.773438 C 258.585938 125.035156 257.851562 125.386719 257.160156 125.832031 C 256.46875 126.273438 255.84375 126.796875 255.28125 127.398438 C 254.71875 127.996094 254.238281 128.65625 253.839844 129.375 C 253.445312 130.09375 253.140625 130.851562 252.929688 131.644531 L 250.542969 140.175781 C 245.320312 140.820312 240.09375 140.820312 234.871094 140.175781 L 232.492188 131.601562 C 232.273438 130.808594 231.964844 130.058594 231.5625 129.34375 C 231.160156 128.628906 230.679688 127.972656 230.117188 127.378906 C 229.554688 126.78125 228.929688 126.261719 228.238281 125.820312 C 227.550781 125.378906 226.816406 125.027344 226.039062 124.765625 C 224.117188 124.101562 222.238281 123.328125 220.40625 122.441406 C 219.671875 122.074219 218.90625 121.804688 218.105469 121.628906 C 217.304688 121.453125 216.492188 121.375 215.671875 121.398438 C 214.851562 121.421875 214.046875 121.542969 213.257812 121.765625 C 212.46875 121.988281 211.71875 122.304688 211.007812 122.710938 L 203.289062 127.078125 C 199.128906 123.84375 195.433594 120.144531 192.195312 115.984375 L 196.574219 108.253906 C 196.976562 107.546875 197.292969 106.800781 197.511719 106.015625 C 197.734375 105.230469 197.855469 104.429688 197.882812 103.613281 C 197.90625 102.800781 197.832031 101.992188 197.65625 101.195312 C 197.480469 100.398438 197.214844 99.636719 196.851562 98.90625 C 195.953125 97.054688 195.167969 95.152344 194.496094 93.207031 C 194.234375 92.433594 193.878906 91.699219 193.433594 91.011719 C 192.988281 90.324219 192.46875 89.699219 191.871094 89.140625 C 191.273438 88.578125 190.617188 88.097656 189.902344 87.699219 C 189.1875 87.296875 188.433594 86.992188 187.644531 86.777344 L 179.097656 84.40625 C 178.457031 79.171875 178.457031 73.941406 179.097656 68.707031 Z M 100.929688 100.015625 C 99.824219 100.019531 98.71875 100.046875 97.613281 100.101562 C 96.507812 100.160156 95.40625 100.242188 94.304688 100.351562 C 93.203125 100.460938 92.105469 100.597656 91.011719 100.761719 C 89.917969 100.925781 88.828125 101.113281 87.742188 101.332031 C 86.65625 101.546875 85.578125 101.792969 84.507812 102.0625 C 83.433594 102.332031 82.367188 102.628906 81.308594 102.949219 C 80.25 103.273438 79.199219 103.621094 78.160156 103.992188 C 77.117188 104.367188 76.085938 104.765625 75.0625 105.191406 C 74.042969 105.613281 73.03125 106.0625 72.03125 106.535156 C 71.03125 107.011719 70.042969 107.507812 69.070312 108.03125 C 68.09375 108.554688 67.132812 109.097656 66.183594 109.667969 C 65.234375 110.238281 64.300781 110.828125 63.378906 111.445312 C 62.460938 112.058594 61.554688 112.695312 60.667969 113.355469 C 59.78125 114.015625 58.90625 114.695312 58.054688 115.398438 C 57.199219 116.101562 56.359375 116.824219 55.539062 117.566406 C 54.722656 118.308594 53.921875 119.074219 53.136719 119.855469 C 52.355469 120.636719 51.59375 121.4375 50.851562 122.257812 C 50.109375 123.078125 49.386719 123.917969 48.683594 124.773438 C 47.980469 125.628906 47.300781 126.5 46.640625 127.386719 C 45.984375 128.277344 45.347656 129.179688 44.730469 130.101562 C 44.117188 131.019531 43.523438 131.953125 42.957031 132.902344 C 42.386719 133.851562 41.839844 134.816406 41.320312 135.789062 C 40.796875 136.765625 40.300781 137.753906 39.828125 138.753906 C 39.351562 139.753906 38.90625 140.765625 38.480469 141.785156 C 38.058594 142.808594 37.660156 143.839844 37.285156 144.882812 C 36.914062 145.925781 36.566406 146.972656 36.242188 148.03125 C 35.921875 149.089844 35.625 150.15625 35.355469 151.230469 C 35.085938 152.304688 34.84375 153.382812 34.628906 154.46875 C 34.410156 155.550781 34.222656 156.640625 34.058594 157.734375 C 33.894531 158.832031 33.757812 159.929688 33.648438 161.027344 C 33.539062 162.128906 33.457031 163.234375 33.402344 164.339844 C 33.347656 165.441406 33.320312 166.546875 33.316406 167.65625 C 33.316406 193 45.460938 207.53125 56.171875 220.355469 C 65.417969 231.417969 73.402344 240.976562 73.402344 256.273438 L 73.402344 265.09375 C 73.402344 266.285156 73.542969 267.460938 73.828125 268.617188 C 74.109375 269.777344 74.523438 270.882812 75.074219 271.941406 C 75.621094 273 76.285156 273.976562 77.070312 274.875 C 77.851562 275.773438 78.730469 276.566406 79.703125 277.253906 L 79.703125 283.777344 C 79.703125 290.984375 86.1875 296.851562 94.160156 296.851562 L 107.703125 296.851562 C 115.6875 296.851562 122.183594 290.988281 122.183594 283.777344 L 122.183594 277.253906 C 123.15625 276.566406 124.035156 275.773438 124.816406 274.875 C 125.597656 273.976562 126.265625 273 126.8125 271.941406 C 127.363281 270.882812 127.777344 269.777344 128.058594 268.617188 C 128.34375 267.460938 128.484375 266.285156 128.484375 265.09375 L 128.484375 256.273438 C 128.484375 240.976562 136.46875 231.417969 145.714844 220.355469 C 156.425781 207.53125 168.570312 193 168.570312 167.65625 C 168.566406 166.550781 168.539062 165.445312 168.484375 164.339844 C 168.429688 163.234375 168.34375 162.128906 168.234375 161.027344 C 168.125 159.925781 167.988281 158.828125 167.828125 157.734375 C 167.664062 156.640625 167.472656 155.550781 167.257812 154.464844 C 167.039062 153.378906 166.796875 152.300781 166.527344 151.226562 C 166.257812 150.15625 165.960938 149.089844 165.640625 148.03125 C 165.316406 146.972656 164.96875 145.921875 164.597656 144.878906 C 164.222656 143.835938 163.824219 142.804688 163.398438 141.785156 C 162.976562 140.761719 162.527344 139.75 162.054688 138.75 C 161.578125 137.75 161.082031 136.761719 160.558594 135.785156 C 160.039062 134.8125 159.492188 133.847656 158.921875 132.898438 C 158.351562 131.949219 157.761719 131.015625 157.144531 130.097656 C 156.53125 129.175781 155.894531 128.273438 155.234375 127.382812 C 154.574219 126.496094 153.894531 125.621094 153.191406 124.765625 C 152.488281 123.910156 151.765625 123.074219 151.023438 122.253906 C 150.28125 121.433594 149.519531 120.632812 148.734375 119.851562 C 147.953125 119.066406 147.152344 118.304688 146.332031 117.5625 C 145.511719 116.820312 144.675781 116.097656 143.820312 115.394531 C 142.964844 114.691406 142.09375 114.011719 141.203125 113.351562 C 140.316406 112.691406 139.410156 112.054688 138.492188 111.441406 C 137.570312 110.824219 136.636719 110.234375 135.6875 109.664062 C 134.738281 109.09375 133.777344 108.546875 132.800781 108.027344 C 131.824219 107.503906 130.835938 107.007812 129.835938 106.53125 C 128.835938 106.058594 127.824219 105.609375 126.800781 105.1875 C 125.78125 104.761719 124.75 104.363281 123.707031 103.988281 C 122.664062 103.617188 121.613281 103.269531 120.554688 102.945312 C 119.496094 102.625 118.429688 102.328125 117.359375 102.058594 C 116.285156 101.789062 115.207031 101.546875 114.121094 101.328125 C 113.035156 101.113281 111.945312 100.921875 110.851562 100.757812 C 109.757812 100.59375 108.660156 100.460938 107.558594 100.351562 C 106.457031 100.238281 105.351562 100.15625 104.25 100.101562 C 103.144531 100.046875 102.035156 100.019531 100.929688 100.015625 Z M 109.972656 283.71875 C 109.6875 284.039062 109.34375 284.28125 108.945312 284.445312 C 108.546875 284.605469 108.132812 284.671875 107.703125 284.640625 L 94.160156 284.640625 C 93.277344 284.699219 92.527344 284.410156 91.910156 283.777344 L 91.910156 280.023438 L 109.972656 280.023438 Z M 116.277344 265.09375 C 116.269531 265.453125 116.199219 265.796875 116.058594 266.128906 C 115.921875 266.460938 115.722656 266.753906 115.46875 267.007812 C 115.214844 267.261719 114.925781 267.457031 114.59375 267.597656 C 114.261719 267.734375 113.917969 267.808594 113.558594 267.8125 L 88.328125 267.8125 C 87.96875 267.808594 87.625 267.738281 87.292969 267.597656 C 86.964844 267.457031 86.671875 267.261719 86.417969 267.007812 C 86.164062 266.753906 85.964844 266.460938 85.828125 266.128906 C 85.6875 265.800781 85.613281 265.453125 85.609375 265.09375 L 85.609375 262.375 L 116.277344 262.375 Z M 136.347656 212.523438 C 127.539062 223.066406 118.472656 233.929688 116.625 250.167969 L 107.035156 250.167969 L 107.035156 171.542969 L 121.578125 160.007812 C 121.890625 159.757812 122.175781 159.480469 122.4375 159.175781 C 122.695312 158.871094 122.921875 158.542969 123.117188 158.191406 C 123.3125 157.839844 123.472656 157.476562 123.59375 157.09375 C 123.714844 156.710938 123.800781 156.324219 123.847656 155.925781 C 123.890625 155.527344 123.898438 155.128906 123.867188 154.730469 C 123.832031 154.328125 123.761719 153.9375 123.652344 153.550781 C 123.542969 153.167969 123.394531 152.796875 123.210938 152.441406 C 123.03125 152.082031 122.8125 151.746094 122.566406 151.433594 C 122.316406 151.121094 122.039062 150.832031 121.734375 150.574219 C 121.429688 150.316406 121.101562 150.085938 120.75 149.894531 C 120.398438 149.699219 120.035156 149.539062 119.652344 149.417969 C 119.273438 149.292969 118.882812 149.210938 118.484375 149.164062 C 118.085938 149.117188 117.6875 149.109375 117.289062 149.144531 C 116.890625 149.175781 116.496094 149.246094 116.109375 149.355469 C 115.726562 149.464844 115.355469 149.613281 115 149.796875 C 114.640625 149.976562 114.308594 150.195312 113.992188 150.441406 L 100.929688 160.804688 L 87.871094 150.441406 C 87.558594 150.191406 87.222656 149.976562 86.863281 149.792969 C 86.507812 149.609375 86.136719 149.464844 85.753906 149.355469 C 85.367188 149.246094 84.972656 149.175781 84.574219 149.140625 C 84.175781 149.109375 83.777344 149.117188 83.378906 149.160156 C 82.980469 149.207031 82.589844 149.292969 82.210938 149.414062 C 81.828125 149.539062 81.460938 149.695312 81.113281 149.890625 C 80.761719 150.085938 80.433594 150.3125 80.128906 150.570312 C 79.824219 150.832031 79.546875 151.117188 79.296875 151.433594 C 79.046875 151.746094 78.832031 152.082031 78.648438 152.4375 C 78.464844 152.792969 78.320312 153.164062 78.207031 153.550781 C 78.097656 153.9375 78.027344 154.328125 77.996094 154.726562 C 77.960938 155.128906 77.96875 155.527344 78.015625 155.925781 C 78.0625 156.324219 78.144531 156.710938 78.269531 157.09375 C 78.390625 157.476562 78.550781 157.839844 78.746094 158.191406 C 78.941406 158.542969 79.167969 158.871094 79.425781 159.175781 C 79.683594 159.480469 79.972656 159.757812 80.285156 160.007812 L 94.828125 171.542969 L 94.828125 250.167969 L 85.261719 250.167969 C 83.414062 233.933594 74.347656 223.066406 65.539062 212.527344 C 55.246094 200.207031 45.523438 188.570312 45.523438 167.65625 C 45.515625 165.835938 45.597656 164.019531 45.769531 162.207031 C 45.941406 160.398438 46.199219 158.597656 46.550781 156.8125 C 46.898438 155.027344 47.335938 153.261719 47.855469 151.519531 C 48.378906 149.777344 48.984375 148.0625 49.675781 146.378906 C 50.367188 144.695312 51.140625 143.050781 51.996094 141.445312 C 52.847656 139.835938 53.777344 138.277344 54.785156 136.761719 C 55.792969 135.246094 56.871094 133.78125 58.023438 132.375 C 59.171875 130.964844 60.390625 129.617188 61.675781 128.328125 C 62.960938 127.035156 64.304688 125.8125 65.707031 124.65625 C 67.113281 123.5 68.570312 122.414062 70.082031 121.402344 C 71.59375 120.390625 73.152344 119.453125 74.753906 118.59375 C 76.359375 117.734375 78 116.953125 79.679688 116.257812 C 81.363281 115.558594 83.070312 114.945312 84.8125 114.414062 C 86.554688 113.886719 88.316406 113.441406 90.101562 113.085938 C 91.886719 112.730469 93.683594 112.464844 95.492188 112.285156 C 97.304688 112.105469 99.121094 112.015625 100.941406 112.015625 C 102.757812 112.015625 104.574219 112.105469 106.386719 112.285156 C 108.195312 112.464844 109.992188 112.730469 111.777344 113.085938 C 113.5625 113.441406 115.324219 113.886719 117.066406 114.414062 C 118.808594 114.945312 120.515625 115.558594 122.199219 116.257812 C 123.878906 116.953125 125.519531 117.734375 127.125 118.59375 C 128.726562 119.453125 130.285156 120.390625 131.796875 121.402344 C 133.308594 122.414062 134.765625 123.5 136.171875 124.65625 C 137.574219 125.8125 138.917969 127.035156 140.203125 128.328125 C 141.488281 129.617188 142.707031 130.964844 143.855469 132.375 C 145.007812 133.78125 146.085938 135.246094 147.09375 136.761719 C 148.101562 138.277344 149.03125 139.835938 149.886719 141.445312 C 150.738281 143.050781 151.511719 144.695312 152.203125 146.378906 C 152.894531 148.0625 153.5 149.777344 154.023438 151.519531 C 154.546875 153.261719 154.980469 155.027344 155.328125 156.8125 C 155.679688 158.597656 155.9375 160.398438 156.109375 162.207031 C 156.28125 164.019531 156.363281 165.835938 156.355469 167.65625 C 156.359375 188.570312 146.636719 200.207031 136.347656 212.527344 Z M 242.707031 160.734375 C 240.765625 160.734375 238.832031 160.828125 236.902344 161.019531 C 234.972656 161.210938 233.054688 161.496094 231.152344 161.875 C 229.25 162.253906 227.371094 162.722656 225.515625 163.285156 C 223.660156 163.851562 221.835938 164.503906 220.042969 165.246094 C 218.25 165.988281 216.5 166.816406 214.789062 167.730469 C 213.078125 168.644531 211.417969 169.640625 209.804688 170.71875 C 208.191406 171.796875 206.636719 172.953125 205.136719 174.183594 C 203.636719 175.414062 202.203125 176.714844 200.832031 178.085938 C 199.460938 179.460938 198.160156 180.894531 196.929688 182.394531 C 195.699219 183.894531 194.546875 185.449219 193.46875 187.0625 C 192.390625 188.675781 191.394531 190.339844 190.480469 192.050781 C 189.566406 193.761719 188.738281 195.511719 187.996094 197.304688 C 187.253906 199.097656 186.601562 200.921875 186.039062 202.777344 C 185.476562 204.632812 185.007812 206.511719 184.628906 208.414062 C 184.25 210.316406 183.96875 212.234375 183.777344 214.164062 C 183.589844 216.09375 183.492188 218.027344 183.492188 219.96875 C 183.496094 221.910156 183.589844 223.84375 183.78125 225.773438 C 183.972656 227.703125 184.253906 229.621094 184.632812 231.523438 C 185.011719 233.425781 185.484375 235.304688 186.046875 237.160156 C 186.609375 239.015625 187.265625 240.839844 188.007812 242.632812 C 188.75 244.421875 189.578125 246.175781 190.492188 247.886719 C 191.40625 249.597656 192.402344 251.257812 193.480469 252.871094 C 194.558594 254.480469 195.714844 256.039062 196.945312 257.539062 C 198.175781 259.035156 199.476562 260.472656 200.847656 261.84375 C 202.222656 263.214844 203.65625 264.515625 205.15625 265.746094 C 206.65625 266.976562 208.210938 268.128906 209.824219 269.207031 C 211.4375 270.285156 213.101562 271.277344 214.8125 272.191406 C 216.523438 273.105469 218.273438 273.933594 220.066406 274.675781 C 221.859375 275.417969 223.683594 276.070312 225.539062 276.632812 C 227.394531 277.195312 229.273438 277.667969 231.175781 278.042969 C 233.078125 278.421875 234.996094 278.707031 236.925781 278.894531 C 238.855469 279.085938 240.789062 279.179688 242.730469 279.179688 C 244.671875 279.179688 246.605469 279.085938 248.535156 278.894531 C 250.464844 278.703125 252.382812 278.417969 254.285156 278.039062 C 256.1875 277.660156 258.066406 277.191406 259.921875 276.625 C 261.777344 276.0625 263.601562 275.410156 265.394531 274.667969 C 267.183594 273.925781 268.9375 273.09375 270.648438 272.179688 C 272.355469 271.265625 274.019531 270.269531 275.632812 269.191406 C 277.242188 268.113281 278.800781 266.960938 280.296875 265.726562 C 281.796875 264.496094 283.234375 263.195312 284.605469 261.824219 C 285.976562 260.453125 287.277344 259.015625 288.507812 257.515625 C 289.738281 256.015625 290.890625 254.460938 291.96875 252.847656 C 293.042969 251.234375 294.039062 249.574219 294.953125 247.863281 C 295.867188 246.152344 296.695312 244.398438 297.4375 242.609375 C 298.179688 240.816406 298.832031 238.992188 299.394531 237.136719 C 299.957031 235.277344 300.425781 233.398438 300.804688 231.496094 C 301.183594 229.59375 301.46875 227.679688 301.65625 225.746094 C 301.847656 223.816406 301.941406 221.882812 301.941406 219.941406 C 301.9375 218.003906 301.839844 216.070312 301.648438 214.140625 C 301.457031 212.210938 301.171875 210.292969 300.789062 208.394531 C 300.410156 206.492188 299.9375 204.613281 299.375 202.757812 C 298.808594 200.902344 298.15625 199.082031 297.414062 197.289062 C 296.667969 195.5 295.839844 193.75 294.925781 192.039062 C 294.007812 190.328125 293.011719 188.667969 291.933594 187.058594 C 290.855469 185.445312 289.703125 183.890625 288.472656 182.390625 C 287.242188 180.894531 285.941406 179.457031 284.570312 178.085938 C 283.199219 176.714844 281.761719 175.417969 280.261719 174.1875 C 278.765625 172.957031 277.207031 171.804688 275.597656 170.726562 C 273.984375 169.648438 272.324219 168.652344 270.613281 167.738281 C 268.902344 166.824219 267.152344 165.996094 265.359375 165.253906 C 263.570312 164.511719 261.746094 163.859375 259.890625 163.292969 C 258.035156 162.730469 256.15625 162.257812 254.253906 161.878906 C 252.351562 161.5 250.4375 161.214844 248.507812 161.023438 C 246.578125 160.832031 244.644531 160.738281 242.707031 160.734375 Z M 242.707031 266.96875 C 241.167969 266.96875 239.628906 266.894531 238.097656 266.742188 C 236.566406 266.589844 235.046875 266.367188 233.535156 266.066406 C 232.023438 265.765625 230.535156 265.390625 229.058594 264.941406 C 227.585938 264.496094 226.140625 263.976562 224.71875 263.386719 C 223.292969 262.796875 221.90625 262.140625 220.546875 261.414062 C 219.1875 260.6875 217.871094 259.898438 216.589844 259.042969 C 215.308594 258.1875 214.074219 257.269531 212.886719 256.292969 C 211.695312 255.316406 210.554688 254.285156 209.46875 253.195312 C 208.378906 252.105469 207.347656 250.964844 206.371094 249.777344 C 205.394531 248.585938 204.476562 247.351562 203.621094 246.070312 C 202.765625 244.789062 201.976562 243.472656 201.25 242.113281 C 200.527344 240.753906 199.867188 239.363281 199.28125 237.941406 C 198.691406 236.519531 198.171875 235.070312 197.726562 233.597656 C 197.277344 232.125 196.90625 230.632812 196.605469 229.125 C 196.304688 227.613281 196.078125 226.09375 195.929688 224.558594 C 195.777344 223.027344 195.703125 221.492188 195.703125 219.953125 C 195.703125 218.414062 195.777344 216.875 195.929688 215.34375 C 196.082031 213.8125 196.304688 212.292969 196.605469 210.78125 C 196.90625 209.269531 197.28125 207.78125 197.726562 206.304688 C 198.175781 204.832031 198.691406 203.386719 199.28125 201.960938 C 199.871094 200.539062 200.527344 199.148438 201.253906 197.792969 C 201.980469 196.433594 202.769531 195.117188 203.625 193.835938 C 204.480469 192.554688 205.398438 191.320312 206.375 190.128906 C 207.351562 188.941406 208.382812 187.800781 209.472656 186.710938 C 210.5625 185.625 211.699219 184.589844 212.890625 183.613281 C 214.082031 182.636719 215.316406 181.722656 216.597656 180.867188 C 217.875 180.011719 219.195312 179.21875 220.550781 178.492188 C 221.910156 177.769531 223.300781 177.109375 224.722656 176.519531 C 226.144531 175.929688 227.59375 175.414062 229.066406 174.964844 C 230.539062 174.519531 232.03125 174.144531 233.542969 173.84375 C 235.050781 173.542969 236.574219 173.320312 238.105469 173.167969 C 239.636719 173.015625 241.171875 172.941406 242.710938 172.941406 C 244.253906 172.941406 245.789062 173.015625 247.320312 173.167969 C 248.851562 173.316406 250.375 173.542969 251.882812 173.84375 C 253.394531 174.144531 254.886719 174.515625 256.359375 174.964844 C 257.832031 175.410156 259.28125 175.929688 260.703125 176.515625 C 262.125 177.105469 263.515625 177.761719 264.875 178.488281 C 266.230469 179.214844 267.550781 180.003906 268.832031 180.859375 C 270.109375 181.714844 271.347656 182.632812 272.535156 183.605469 C 273.726562 184.582031 274.867188 185.617188 275.957031 186.703125 C 277.042969 187.792969 278.078125 188.933594 279.054688 190.121094 C 280.03125 191.3125 280.949219 192.546875 281.804688 193.828125 C 282.660156 195.105469 283.449219 196.425781 284.175781 197.785156 C 284.902344 199.140625 285.558594 200.53125 286.148438 201.953125 C 286.738281 203.375 287.257812 204.824219 287.703125 206.296875 C 288.152344 207.769531 288.527344 209.261719 288.828125 210.773438 C 289.128906 212.28125 289.351562 213.800781 289.503906 215.335938 C 289.65625 216.867188 289.730469 218.402344 289.730469 219.941406 C 289.730469 221.484375 289.652344 223.019531 289.503906 224.550781 C 289.351562 226.082031 289.125 227.605469 288.820312 229.113281 C 288.519531 230.625 288.144531 232.117188 287.699219 233.589844 C 287.25 235.0625 286.730469 236.511719 286.140625 237.933594 C 285.550781 239.355469 284.894531 240.746094 284.167969 242.105469 C 283.441406 243.460938 282.652344 244.78125 281.796875 246.0625 C 280.9375 247.339844 280.023438 248.578125 279.046875 249.765625 C 278.070312 250.957031 277.035156 252.097656 275.945312 253.1875 C 274.859375 254.273438 273.71875 255.308594 272.527344 256.285156 C 271.339844 257.261719 270.101562 258.179688 268.824219 259.035156 C 267.542969 259.890625 266.222656 260.679688 264.867188 261.40625 C 263.507812 262.132812 262.117188 262.792969 260.695312 263.382812 C 259.273438 263.972656 257.824219 264.492188 256.351562 264.9375 C 254.878906 265.386719 253.386719 265.761719 251.878906 266.0625 C 250.367188 266.363281 248.847656 266.589844 247.3125 266.742188 C 245.78125 266.894531 244.246094 266.972656 242.707031 266.972656 Z M 242.707031 266.96875 " fill-opacity="1" fill-rule="nonzero"/></g></svg>