<svg xmlns="http://www.w3.org/2000/svg" xmlns:xlink="http://www.w3.org/1999/xlink" width="684" zoomAndPan="magnify" viewBox="0 0 513 422.99999" height="564" preserveAspectRatio="xMidYMid meet" version="1.0"><defs><clipPath id="2f00626978"><path d="M 37.40625 1.171875 L 475.40625 1.171875 L 475.40625 421.921875 L 37.40625 421.921875 Z M 37.40625 1.171875 " clip-rule="nonzero"/></clipPath></defs><g clip-path="url(#2f00626978)"><path fill="#dc5341" d="M 475.378906 197.328125 C 475.378906 188.824219 472.152344 180.320312 465.71875 173.875 L 465.683594 173.84375 C 459.425781 167.582031 451.207031 164.367188 442.945312 164.191406 C 442.703125 162.023438 442.265625 159.890625 441.578125 157.800781 C 440 152.964844 437.253906 148.464844 433.378906 144.59375 L 433.347656 144.59375 C 426.902344 138.144531 418.398438 134.929688 409.894531 134.929688 L 409.894531 134.894531 C 401.394531 134.894531 392.878906 138.136719 386.421875 144.59375 L 302.53125 228.480469 L 150.421875 228.613281 C 150.226562 228.582031 150.039062 228.558594 149.84375 228.546875 C 145.167969 228.21875 140.398438 228.898438 135.902344 230.574219 C 131.753906 232.117188 127.855469 234.5 124.507812 237.742188 L 124.070312 238.144531 L 39.753906 322.484375 C 38.253906 323.984375 37.574219 326.007812 37.71875 327.96875 L 37.71875 414.222656 L 37.683594 414.84375 C 37.683594 418.730469 40.835938 421.882812 44.722656 421.882812 L 121.511719 421.859375 C 123.347656 421.859375 125.1875 421.136719 126.566406 419.703125 L 145.683594 399.820312 L 321.53125 355.554688 C 327.199219 353.792969 332.945312 350.488281 338.546875 346.285156 C 343.886719 342.28125 349.117188 337.476562 354 332.453125 C 354.03125 332.421875 354.054688 332.386719 354.085938 332.355469 C 354.292969 332.191406 354.5 332.015625 354.6875 331.820312 L 465.707031 220.800781 C 472.164062 214.34375 475.402344 205.820312 475.402344 197.328125 Z M 396.382812 154.550781 C 400.089844 150.839844 405.003906 148.980469 409.917969 148.980469 L 409.917969 148.945312 C 414.820312 148.945312 419.734375 150.808594 423.453125 154.539062 C 425.753906 156.835938 427.363281 159.429688 428.246094 162.144531 C 428.742188 163.664062 429.023438 165.242188 429.089844 166.851562 C 425.335938 168.457031 421.824219 170.789062 418.769531 173.832031 L 338.21875 254.386719 C 336.816406 248.136719 333.664062 242.554688 329.289062 238.199219 C 326.476562 235.386719 323.160156 233.078125 319.503906 231.414062 Z M 461.339844 197.328125 C 461.339844 202.242188 459.480469 207.144531 455.769531 210.863281 L 344.75 321.882812 C 344.640625 321.992188 344.542969 322.113281 344.445312 322.234375 C 344.28125 322.375 344.117188 322.527344 343.953125 322.679688 C 339.488281 327.277344 334.792969 331.609375 330.152344 335.089844 C 325.886719 338.285156 321.660156 340.78125 317.734375 342.050781 L 140.332031 386.6875 C 138.878906 387.050781 137.640625 387.847656 136.722656 388.910156 L 118.542969 407.820312 L 51.726562 407.820312 L 51.726562 330.394531 L 134.3125 247.785156 C 136.230469 245.957031 138.4375 244.601562 140.78125 243.726562 C 143.351562 242.773438 146.132812 242.390625 148.902344 242.578125 C 149.03125 242.589844 149.164062 242.578125 149.296875 242.589844 C 149.589844 242.621094 149.875 242.652344 150.179688 242.652344 L 305.828125 242.523438 L 305.847656 242.554688 C 311.113281 242.554688 315.894531 244.699219 319.332031 248.148438 L 319.332031 248.179688 C 322.808594 251.660156 324.976562 256.441406 324.988281 261.671875 L 324.957031 261.695312 C 324.957031 266.949219 322.800781 271.730469 319.332031 275.199219 C 315.863281 278.667969 311.078125 280.824219 305.828125 280.824219 L 197.488281 280.824219 C 193.605469 280.824219 190.453125 283.976562 190.453125 287.859375 C 190.453125 291.746094 193.605469 294.898438 197.488281 294.898438 L 305.828125 294.898438 C 314.964844 294.898438 323.269531 291.164062 329.277344 285.144531 C 331.519531 282.902344 333.445312 280.34375 334.980469 277.53125 L 428.695312 183.8125 C 432.40625 180.101562 437.320312 178.242188 442.234375 178.242188 L 442.234375 178.210938 C 447.136719 178.210938 452.050781 180.070312 455.78125 183.789062 C 459.5 187.523438 461.363281 192.433594 461.363281 197.339844 L 461.339844 197.339844 Z M 209.527344 87.0625 C 213.597656 91.253906 218.992188 93.421875 224.429688 93.542969 C 229.695312 93.652344 235.023438 91.824219 239.214844 88.039062 C 239.414062 87.875 239.609375 87.699219 239.796875 87.5 C 243.976562 83.429688 246.152344 78.035156 246.273438 72.597656 C 246.382812 67.332031 244.554688 62.015625 240.769531 57.8125 L 240.234375 57.230469 C 236.160156 53.050781 230.765625 50.886719 225.328125 50.765625 C 220.066406 50.65625 214.746094 52.484375 210.542969 56.269531 C 210.347656 56.433594 210.148438 56.609375 209.964844 56.816406 C 205.785156 60.886719 203.605469 66.269531 203.484375 71.722656 C 203.375 76.984375 205.203125 82.304688 208.988281 86.503906 C 209.152344 86.679688 209.328125 86.878906 209.527344 87.0625 Z M 219.792969 66.808594 L 220.054688 66.566406 C 221.476562 65.332031 223.269531 64.726562 225.042969 64.761719 C 226.914062 64.804688 228.785156 65.570312 230.210938 67.046875 L 230.285156 67.15625 L 230.4375 67.3125 C 231.675781 68.734375 232.277344 70.527344 232.246094 72.300781 C 232.199219 74.171875 231.433594 76.042969 229.957031 77.464844 L 229.695312 77.707031 C 228.273438 78.945312 226.476562 79.546875 224.703125 79.511719 C 222.832031 79.480469 220.960938 78.703125 219.539062 77.226562 L 219.296875 76.964844 C 218.050781 75.53125 217.460938 73.746094 217.492188 71.960938 C 217.535156 70.101562 218.304688 68.230469 219.792969 66.808594 Z M 215.085938 143.082031 L 287.082031 53.359375 C 289.511719 50.339844 293.929688 49.855469 296.941406 52.285156 C 299.960938 54.714844 300.441406 59.136719 298.011719 62.144531 L 226.019531 151.867188 C 223.589844 154.890625 219.167969 155.371094 216.15625 152.941406 C 213.136719 150.523438 212.65625 146.101562 215.085938 143.082031 Z M 273.414062 117.648438 C 269.15625 121.730469 266.957031 127.160156 266.835938 132.652344 C 266.726562 137.925781 268.554688 143.246094 272.339844 147.4375 C 272.503906 147.632812 272.679688 147.832031 272.875 148.015625 C 276.949219 152.199219 282.332031 154.375 287.78125 154.496094 C 293.042969 154.605469 298.363281 152.777344 302.566406 148.992188 C 302.773438 148.828125 302.96875 148.652344 303.144531 148.453125 C 307.335938 144.382812 309.503906 138.988281 309.625 133.550781 C 309.742188 128.078125 307.761719 122.550781 303.679688 118.285156 C 299.601562 114.027344 294.171875 111.828125 288.679688 111.707031 C 283.207031 111.585938 277.679688 113.566406 273.414062 117.648438 Z M 295.605469 133.265625 C 295.574219 135.136719 294.796875 137.007812 293.320312 138.429688 L 293.054688 138.671875 C 291.621094 139.917969 289.839844 140.511719 288.054688 140.476562 C 286.183594 140.433594 284.3125 139.667969 282.890625 138.191406 L 282.648438 137.925781 C 281.402344 136.503906 280.808594 134.710938 280.84375 132.925781 C 280.875 131.054688 281.652344 129.183594 283.128906 127.761719 C 284.597656 126.359375 286.5 125.683594 288.382812 125.714844 C 290.253906 125.746094 292.136719 126.523438 293.546875 128.003906 C 294.960938 129.46875 295.636719 131.382812 295.605469 133.265625 Z M 256.550781 199.984375 C 283.996094 199.984375 308.859375 188.855469 326.835938 170.867188 C 344.828125 152.875 355.957031 128.023438 355.957031 100.578125 C 355.957031 73.132812 344.828125 48.269531 326.835938 30.289062 C 308.859375 12.300781 284.003906 1.171875 256.550781 1.171875 C 229.105469 1.171875 204.242188 12.300781 186.261719 30.289062 C 168.269531 48.28125 157.140625 73.132812 157.140625 100.578125 C 157.140625 128.023438 168.269531 152.886719 186.261719 170.867188 C 204.25 188.855469 229.105469 199.984375 256.550781 199.984375 Z M 196.207031 40.238281 C 211.648438 24.796875 232.988281 15.242188 256.550781 15.242188 C 280.121094 15.242188 301.460938 24.796875 316.890625 40.238281 C 332.332031 55.679688 341.882812 77.019531 341.882812 100.578125 C 341.882812 124.148438 332.332031 145.488281 316.890625 160.917969 C 301.449219 176.359375 280.109375 185.914062 256.550781 185.914062 C 232.988281 185.914062 211.648438 176.359375 196.207031 160.917969 C 180.769531 145.476562 171.214844 124.140625 171.214844 100.578125 C 171.214844 77.019531 180.769531 55.679688 196.207031 40.238281 Z M 196.207031 40.238281 " fill-opacity="1" fill-rule="nonzero"/></g></svg>