<svg xmlns="http://www.w3.org/2000/svg" xmlns:xlink="http://www.w3.org/1999/xlink" width="684" zoomAndPan="magnify" viewBox="0 0 513 422.99999" height="564" preserveAspectRatio="xMidYMid meet" version="1.0"><path fill="#dc5341" d="M 465.199219 115.789062 C 433.449219 84.972656 405.4375 107.382812 396.097656 116.722656 L 353.144531 161.542969 L 353.144531 37.351562 C 353.144531 16.808594 336.335938 0 315.792969 0 L 66.476562 0 C 45.933594 0 29.125 16.808594 29.125 37.351562 L 29.125 385.648438 C 29.125 406.191406 45.933594 423 66.476562 423 L 314.859375 423 C 335.402344 423 352.210938 406.191406 352.210938 385.648438 L 352.210938 303.476562 L 465.199219 183.953125 C 483.875 165.277344 483.875 134.464844 465.199219 115.789062 Z M 395.164062 143.800781 L 409.171875 158.742188 L 272.839844 304.410156 L 258.832031 289.46875 L 304.589844 240.914062 Z M 282.179688 341.761719 L 239.222656 352.96875 L 250.429688 308.144531 L 265.371094 324.019531 C 265.371094 324.019531 266.304688 324.019531 266.304688 324.953125 Z M 333.535156 386.582031 C 333.535156 396.855469 325.132812 405.257812 314.859375 405.257812 L 66.476562 405.257812 C 56.203125 405.257812 47.800781 396.855469 47.800781 386.582031 L 47.800781 37.351562 C 47.800781 27.078125 56.203125 18.675781 66.476562 18.675781 L 314.859375 18.675781 C 325.132812 18.675781 333.535156 27.078125 333.535156 37.351562 L 333.535156 181.152344 L 239.222656 282.933594 C 239.222656 282.933594 237.355469 285.734375 236.421875 287.601562 L 216.8125 363.238281 C 215.878906 366.039062 216.8125 369.773438 219.613281 372.578125 C 222.417969 376.3125 228.019531 375.378906 228.953125 375.378906 L 302.722656 356.703125 C 302.722656 356.703125 307.390625 355.769531 307.390625 353.902344 L 334.46875 324.953125 L 334.46875 386.582031 Z M 299.917969 333.359375 L 285.914062 318.417969 L 422.242188 172.75 L 436.25 187.6875 Z M 452.125 170.878906 L 449.324219 173.683594 L 408.238281 130.726562 L 409.171875 129.792969 C 420.375 118.589844 439.984375 117.65625 451.191406 128.859375 C 463.332031 141 463.332031 159.675781 452.125 170.878906 Z M 452.125 170.878906 " fill-opacity="1" fill-rule="nonzero"/><path fill="#dc5341" d="M 233.621094 116.722656 C 252.296875 116.722656 268.171875 100.847656 268.171875 82.171875 C 268.171875 63.496094 252.296875 47.621094 233.621094 47.621094 C 214.945312 47.621094 199.070312 63.496094 199.070312 82.171875 C 199.070312 101.78125 214.945312 116.722656 233.621094 116.722656 Z M 233.621094 67.230469 C 242.027344 67.230469 249.496094 74.703125 249.496094 83.105469 C 249.496094 91.511719 242.027344 98.980469 233.621094 98.980469 C 225.21875 98.980469 217.746094 91.511719 217.746094 83.105469 C 217.746094 73.769531 225.21875 67.230469 233.621094 67.230469 Z M 233.621094 67.230469 " fill-opacity="1" fill-rule="nonzero"/><path fill="#dc5341" d="M 186.933594 195.160156 C 192.535156 195.160156 196.269531 191.425781 196.269531 185.820312 C 196.269531 165.277344 213.078125 149.402344 234.554688 149.402344 C 256.03125 149.402344 272.839844 166.210938 272.839844 185.820312 C 272.839844 191.425781 276.574219 195.160156 282.179688 195.160156 C 287.78125 195.160156 291.515625 191.425781 291.515625 185.820312 C 291.515625 155.007812 266.304688 130.726562 234.554688 130.726562 C 202.808594 130.726562 177.59375 155.941406 177.59375 185.820312 C 177.59375 191.425781 181.332031 195.160156 186.933594 195.160156 Z M 186.933594 195.160156 " fill-opacity="1" fill-rule="nonzero"/><path fill="#dc5341" d="M 75.8125 74.703125 L 143.980469 74.703125 C 149.582031 74.703125 153.316406 70.96875 153.316406 65.363281 C 153.316406 59.761719 149.582031 56.027344 143.980469 56.027344 L 75.8125 56.027344 C 70.210938 56.027344 66.476562 59.761719 66.476562 65.363281 C 66.476562 70.96875 70.210938 74.703125 75.8125 74.703125 Z M 75.8125 74.703125 " fill-opacity="1" fill-rule="nonzero"/><path fill="#dc5341" d="M 75.8125 135.398438 L 143.980469 135.398438 C 149.582031 135.398438 153.316406 131.664062 153.316406 126.058594 C 153.316406 120.457031 149.582031 116.722656 143.980469 116.722656 L 75.8125 116.722656 C 70.210938 116.722656 66.476562 120.457031 66.476562 126.058594 C 66.476562 131.664062 70.210938 135.398438 75.8125 135.398438 Z M 75.8125 135.398438 " fill-opacity="1" fill-rule="nonzero"/><path fill="#dc5341" d="M 75.8125 196.09375 L 143.980469 196.09375 C 149.582031 196.09375 153.316406 192.359375 153.316406 186.753906 C 153.316406 181.152344 149.582031 177.417969 143.980469 177.417969 L 75.8125 177.417969 C 70.210938 177.417969 66.476562 181.152344 66.476562 186.753906 C 66.476562 192.359375 70.210938 196.09375 75.8125 196.09375 Z M 75.8125 196.09375 " fill-opacity="1" fill-rule="nonzero"/><path fill="#dc5341" d="M 205.609375 238.113281 L 75.8125 238.113281 C 70.210938 238.113281 66.476562 241.847656 66.476562 247.449219 C 66.476562 253.054688 70.210938 256.789062 75.8125 256.789062 L 205.609375 256.789062 C 211.210938 256.789062 214.945312 253.054688 214.945312 247.449219 C 214.945312 241.847656 210.277344 238.113281 205.609375 238.113281 Z M 205.609375 238.113281 " fill-opacity="1" fill-rule="nonzero"/><path fill="#dc5341" d="M 205.609375 298.808594 L 75.8125 298.808594 C 70.210938 298.808594 66.476562 302.542969 66.476562 308.144531 C 66.476562 313.75 70.210938 317.484375 75.8125 317.484375 L 205.609375 317.484375 C 211.210938 317.484375 214.945312 313.75 214.945312 308.144531 C 214.945312 302.542969 210.277344 298.808594 205.609375 298.808594 Z M 205.609375 298.808594 " fill-opacity="1" fill-rule="nonzero"/><path fill="#dc5341" d="M 205.609375 358.570312 L 75.8125 358.570312 C 70.210938 358.570312 66.476562 362.304688 66.476562 367.90625 C 66.476562 373.511719 70.210938 377.246094 75.8125 377.246094 L 205.609375 377.246094 C 211.210938 377.246094 214.945312 373.511719 214.945312 367.90625 C 214.945312 362.304688 210.277344 358.570312 205.609375 358.570312 Z M 205.609375 358.570312 " fill-opacity="1" fill-rule="nonzero"/></svg>