<svg xmlns="http://www.w3.org/2000/svg" xmlns:xlink="http://www.w3.org/1999/xlink" width="89" zoomAndPan="magnify" viewBox="0 0 66.75 30.000001" height="40" preserveAspectRatio="xMidYMid meet" version="1.0"><defs><g/><clipPath id="863834d59e"><path d="M 3.859375 2.902344 L 25.632812 2.902344 L 25.632812 24.675781 L 3.859375 24.675781 Z M 3.859375 2.902344 " clip-rule="nonzero"/></clipPath></defs><g fill="#00aeef" fill-opacity="1"><g transform="translate(27.422345, 18.719252)"><g><path d="M 2.171875 0.078125 C 1.546875 0.078125 1.078125 -0.140625 0.765625 -0.578125 C 0.460938 -1.015625 0.3125 -1.679688 0.3125 -2.578125 L 0.3125 -6.3125 C 0.3125 -7.113281 0.488281 -7.71875 0.84375 -8.125 C 1.207031 -8.539062 1.738281 -8.75 2.4375 -8.75 C 3.007812 -8.75 3.453125 -8.632812 3.765625 -8.40625 C 4.085938 -8.175781 4.304688 -7.84375 4.421875 -7.40625 C 4.546875 -6.96875 4.609375 -6.40625 4.609375 -5.71875 L 2.921875 -5.71875 L 2.921875 -6.5 C 2.921875 -6.707031 2.890625 -6.867188 2.828125 -6.984375 C 2.773438 -7.097656 2.671875 -7.15625 2.515625 -7.15625 C 2.191406 -7.15625 2.03125 -6.941406 2.03125 -6.515625 L 2.03125 -2.3125 C 2.03125 -2.050781 2.0625 -1.851562 2.125 -1.71875 C 2.195312 -1.582031 2.316406 -1.515625 2.484375 -1.515625 C 2.648438 -1.515625 2.765625 -1.582031 2.828125 -1.71875 C 2.898438 -1.851562 2.9375 -2.050781 2.9375 -2.3125 L 2.9375 -3.546875 L 2.46875 -3.546875 L 2.46875 -5.046875 L 4.59375 -5.046875 L 4.59375 0 L 3.890625 0 L 3.609375 -0.734375 C 3.296875 -0.191406 2.816406 0.078125 2.171875 0.078125 Z M 2.171875 0.078125 "/></g></g></g><g fill="#00aeef" fill-opacity="1"><g transform="translate(32.314809, 18.719252)"><g><path d="M 0.34375 -7.890625 L 0.34375 -9.109375 L 2.109375 -9.109375 L 2.109375 -7.890625 Z M 0.34375 0 L 0.34375 -7.390625 L 2.109375 -7.390625 L 2.109375 0 Z M 0.34375 0 "/></g></g></g><g fill="#00aeef" fill-opacity="1"><g transform="translate(34.766082, 18.719252)"><g><path d="M 1.875 0.078125 C 1.414062 0.078125 1.097656 -0.015625 0.921875 -0.203125 C 0.742188 -0.398438 0.65625 -0.71875 0.65625 -1.15625 L 0.65625 -5.765625 L 0.15625 -5.765625 L 0.15625 -7.109375 L 0.65625 -7.109375 L 0.65625 -8.671875 L 2.375 -8.671875 L 2.375 -7.109375 L 2.875 -7.109375 L 2.875 -5.765625 L 2.375 -5.765625 L 2.375 -1.609375 C 2.375 -1.484375 2.382812 -1.390625 2.40625 -1.328125 C 2.425781 -1.265625 2.476562 -1.234375 2.5625 -1.234375 C 2.632812 -1.234375 2.695312 -1.238281 2.75 -1.25 C 2.8125 -1.257812 2.851562 -1.265625 2.875 -1.265625 L 2.875 -0.046875 C 2.769531 -0.0234375 2.625 0 2.4375 0.03125 C 2.25 0.0625 2.0625 0.078125 1.875 0.078125 Z M 1.875 0.078125 "/></g></g></g><g fill="#00aeef" fill-opacity="1"><g transform="translate(37.842783, 18.719252)"><g><path d="M 0.390625 0 L 0.390625 -8.671875 L 2.109375 -8.671875 L 2.109375 -5.578125 L 2.921875 -5.578125 L 2.921875 -8.671875 L 4.65625 -8.671875 L 4.65625 0 L 2.921875 0 L 2.921875 -3.9375 L 2.109375 -3.9375 L 2.109375 0 Z M 0.390625 0 "/></g></g></g><g fill="#00aeef" fill-opacity="1"><g transform="translate(42.876472, 18.719252)"><g><path d="M 1.78125 0.078125 C 1.226562 0.078125 0.847656 -0.0820312 0.640625 -0.40625 C 0.429688 -0.738281 0.328125 -1.234375 0.328125 -1.890625 L 0.328125 -7.390625 L 2.109375 -7.390625 L 2.109375 -2.234375 C 2.109375 -2.191406 2.109375 -2.066406 2.109375 -1.859375 C 2.109375 -1.648438 2.140625 -1.503906 2.203125 -1.421875 C 2.265625 -1.335938 2.363281 -1.296875 2.5 -1.296875 C 2.6875 -1.296875 2.800781 -1.367188 2.84375 -1.515625 C 2.894531 -1.671875 2.921875 -1.894531 2.921875 -2.1875 L 2.921875 -7.390625 L 4.6875 -7.390625 L 4.6875 0 L 2.921875 0 L 2.921875 -0.78125 C 2.796875 -0.476562 2.648438 -0.257812 2.484375 -0.125 C 2.328125 0.0078125 2.09375 0.078125 1.78125 0.078125 Z M 1.78125 0.078125 "/></g></g></g><g fill="#00aeef" fill-opacity="1"><g transform="translate(47.910161, 18.719252)"><g><path d="M 3.203125 0.078125 C 2.722656 0.078125 2.378906 -0.207031 2.171875 -0.78125 L 2.171875 0 L 0.359375 0 L 0.359375 -8.71875 L 2.171875 -8.71875 L 2.171875 -7.03125 C 2.453125 -7.320312 2.78125 -7.46875 3.15625 -7.46875 C 3.726562 -7.46875 4.140625 -7.296875 4.390625 -6.953125 C 4.640625 -6.617188 4.765625 -6.128906 4.765625 -5.484375 L 4.765625 -1.921875 C 4.765625 -1.316406 4.632812 -0.832031 4.375 -0.46875 C 4.125 -0.101562 3.734375 0.078125 3.203125 0.078125 Z M 2.609375 -1.296875 C 2.734375 -1.296875 2.820312 -1.332031 2.875 -1.40625 C 2.925781 -1.488281 2.957031 -1.585938 2.96875 -1.703125 C 2.976562 -1.816406 2.984375 -2 2.984375 -2.25 L 2.984375 -5.328125 C 2.984375 -5.585938 2.957031 -5.78125 2.90625 -5.90625 C 2.863281 -6.039062 2.765625 -6.109375 2.609375 -6.109375 C 2.441406 -6.109375 2.328125 -6.039062 2.265625 -5.90625 C 2.203125 -5.78125 2.171875 -5.59375 2.171875 -5.34375 L 2.171875 -2.25 C 2.171875 -1.925781 2.195312 -1.6875 2.25 -1.53125 C 2.300781 -1.375 2.421875 -1.296875 2.609375 -1.296875 Z M 2.609375 -1.296875 "/></g></g></g><g clip-path="url(#863834d59e)"><path fill="#00aeef" d="M 14.746094 2.902344 C 8.734375 2.902344 3.859375 7.777344 3.859375 13.789062 C 3.859375 19.804688 8.734375 24.675781 14.746094 24.675781 C 20.757812 24.675781 25.632812 19.804688 25.632812 13.789062 C 25.632812 7.777344 20.757812 2.902344 14.746094 2.902344 Z M 14.746094 23.851562 C 9.1875 23.851562 4.683594 19.347656 4.683594 13.789062 C 4.683594 8.234375 9.1875 3.726562 14.746094 3.726562 C 20.304688 3.726562 24.808594 8.234375 24.808594 13.789062 C 24.808594 19.347656 20.304688 23.851562 14.746094 23.851562 Z M 14.746094 23.851562 " fill-opacity="1" fill-rule="nonzero"/></g><path fill="#00aeef" d="M 13.46875 19.125 C 13.195312 19.152344 12.976562 19.183594 12.757812 19.195312 C 11.515625 19.253906 10.597656 18.761719 10.039062 17.621094 C 9.859375 17.257812 9.632812 16.914062 9.398438 16.585938 C 9.253906 16.386719 9.054688 16.226562 8.871094 16.0625 L 8.867188 16.058594 C 8.753906 15.960938 8.804688 15.773438 8.953125 15.746094 C 9.128906 15.71875 9.292969 15.75 9.453125 15.789062 C 9.953125 15.917969 10.273438 16.273438 10.527344 16.695312 C 11.105469 17.652344 12.101562 18.050781 13.175781 17.765625 C 13.359375 17.71875 13.441406 17.640625 13.480469 17.441406 C 13.527344 17.207031 13.589844 16.980469 13.65625 16.746094 C 13.699219 16.601562 13.683594 16.464844 13.605469 16.332031 C 13.53125 16.203125 13.417969 16.121094 13.269531 16.085938 L 13.265625 16.082031 C 12.148438 15.816406 11.183594 15.320312 10.5625 14.300781 C 10.230469 13.753906 10.066406 13.152344 10.074219 12.527344 C 10.085938 11.816406 10.148438 11.105469 10.230469 10.398438 C 10.285156 9.902344 10.515625 9.460938 10.875 9.105469 C 11 8.980469 11.011719 8.875 10.949219 8.714844 C 10.703125 8.050781 10.746094 7.390625 10.964844 6.726562 C 11.027344 6.542969 11.113281 6.515625 11.292969 6.570312 C 11.847656 6.746094 12.257812 7.105469 12.621094 7.535156 L 12.625 7.539062 C 12.832031 7.789062 13.085938 7.863281 13.390625 7.761719 C 14.539062 7.386719 16.28125 7.382812 17.363281 7.753906 C 17.671875 7.859375 17.929688 7.785156 18.136719 7.535156 L 18.140625 7.53125 C 18.503906 7.101562 18.917969 6.742188 19.472656 6.570312 C 19.65625 6.511719 19.738281 6.554688 19.796875 6.734375 C 20.011719 7.398438 20.046875 8.054688 19.816406 8.722656 C 19.78125 8.816406 19.78125 8.980469 19.839844 9.039062 C 20.335938 9.542969 20.554688 10.167969 20.609375 10.84375 C 20.664062 11.496094 20.71875 12.160156 20.660156 12.808594 C 20.5 14.496094 19.476562 15.480469 17.917969 15.96875 C 17.78125 16.007812 17.648438 16.042969 17.507812 16.078125 C 17.355469 16.113281 17.242188 16.199219 17.167969 16.335938 C 17.089844 16.472656 17.078125 16.617188 17.132812 16.765625 C 17.34375 17.378906 17.3125 18.039062 17.308594 18.691406 C 17.308594 18.839844 17.304688 18.992188 17.304688 19.140625 C 17.304688 19.394531 17.257812 19.636719 17.160156 19.867188 C 17.0625 20.097656 16.925781 20.304688 16.75 20.480469 C 16.570312 20.660156 16.367188 20.796875 16.132812 20.890625 C 15.902344 20.988281 15.660156 21.035156 15.410156 21.035156 L 15.367188 21.035156 C 15.113281 21.035156 14.871094 20.988281 14.640625 20.890625 C 14.40625 20.796875 14.203125 20.65625 14.023438 20.480469 C 13.847656 20.300781 13.707031 20.097656 13.613281 19.863281 C 13.515625 19.632812 13.46875 19.390625 13.46875 19.136719 Z M 13.46875 19.125 " fill-opacity="1" fill-rule="nonzero"/></svg>