<svg xmlns="http://www.w3.org/2000/svg" xmlns:xlink="http://www.w3.org/1999/xlink" width="89" zoomAndPan="magnify" viewBox="0 0 66.75 30.000001" height="40" preserveAspectRatio="xMidYMid meet" version="1.0"><defs><g/><clipPath id="640865a30e"><path d="M 6.09375 3.507812 L 27.867188 3.507812 L 27.867188 25.28125 L 6.09375 25.28125 Z M 6.09375 3.507812 " clip-rule="nonzero"/></clipPath><clipPath id="96bc5a76b6"><path d="M 13 6 L 23 6 L 23 25.28125 L 13 25.28125 Z M 13 6 " clip-rule="nonzero"/></clipPath><clipPath id="bfc6f0e1c3"><path d="M 12 5 L 24 5 L 24 25.28125 L 12 25.28125 Z M 12 5 " clip-rule="nonzero"/></clipPath></defs><g clip-path="url(#640865a30e)"><path stroke-linecap="butt" transform="matrix(0.0488759, 0, 0, 0.0488759, 5.225798, 2.924237)" fill-opacity="1" fill="#4267b2" fill-rule="nonzero" stroke-linejoin="miter" d="M 462.683364 234.602288 C 462.683364 249.227991 461.24477 263.613928 458.447505 277.919943 C 455.570317 292.225958 451.334458 306.132364 445.819849 319.63916 C 440.225318 333.145956 433.352037 345.933456 425.279928 358.08158 C 417.127897 370.149783 407.936882 381.418767 397.62696 391.728688 C 387.317039 402.03861 376.048055 411.229625 363.979852 419.381656 C 351.831728 427.453765 339.044228 434.327046 325.537432 439.921577 C 312.030635 445.436186 298.12423 449.672046 283.818214 452.549233 C 269.512199 455.346499 255.126262 456.785092 240.50056 456.785092 C 225.874857 456.785092 211.48892 455.346499 197.182905 452.549233 C 182.87689 449.672046 168.970484 445.436186 155.463688 439.921577 C 141.956892 434.327046 129.169392 427.453765 117.021267 419.381656 C 104.953065 411.229625 93.684081 402.03861 83.374159 391.728688 C 73.064238 381.418767 63.873223 370.149783 55.721192 358.08158 C 47.649083 345.933456 40.775802 333.145956 35.181271 319.63916 C 29.666661 306.132364 25.430802 292.225958 22.553615 277.919943 C 19.756349 263.613928 18.317756 249.227991 18.317756 234.602288 C 18.317756 219.976585 19.756349 205.590648 22.553615 191.284633 C 25.430802 176.978618 29.666661 163.072213 35.181271 149.565416 C 40.775802 136.05862 47.649083 123.27112 55.721192 111.122996 C 63.873223 99.054793 73.064238 87.785809 83.374159 77.475888 C 93.684081 67.165966 104.953065 57.974951 117.021267 49.82292 C 129.169392 41.750811 141.956892 34.87753 155.463688 29.282999 C 168.970484 23.76839 182.87689 19.53253 197.182905 16.655343 C 211.48892 13.858077 225.874857 12.419484 240.50056 12.419484 C 255.126262 12.419484 269.512199 13.858077 283.818214 16.655343 C 298.12423 19.53253 312.030635 23.76839 325.537432 29.282999 C 339.044228 34.87753 351.831728 41.750811 363.979852 49.82292 C 376.048055 57.974951 387.317039 67.165966 397.62696 77.475888 C 407.936882 87.785809 417.127897 99.054793 425.279928 111.122996 C 433.352037 123.27112 440.225318 136.05862 445.819849 149.565416 C 451.334458 163.072213 455.570317 176.978618 458.447505 191.284633 C 461.24477 205.590648 462.683364 219.976585 462.683364 234.602288 Z M 462.683364 234.602288 " stroke="#4267b2" stroke-width="1" stroke-opacity="1" stroke-miterlimit="10"/></g><g clip-path="url(#96bc5a76b6)"><path fill="#ffffff" d="M 19.53125 6.738281 C 18.667969 6.894531 18.367188 7.039062 17.871094 7.324219 C 17.335938 7.625 16.964844 7.945312 16.710938 8.203125 C 15.878906 9.0625 15.695312 9.863281 15.539062 10.484375 C 15.304688 11.398438 15.328125 12.257812 15.328125 12.257812 L 15.328125 12.929688 L 13.582031 12.929688 L 13.582031 15.964844 L 15.328125 15.964844 L 15.328125 25.128906 C 15.867188 25.210938 16.417969 25.253906 16.980469 25.253906 C 17.8125 25.253906 18.621094 25.164062 19.398438 24.988281 L 19.398438 15.964844 L 22.054688 15.964844 L 22.054688 12.929688 L 19.398438 12.929688 L 19.398438 12.285156 C 19.398438 12.285156 19.398438 12.167969 19.398438 12.152344 C 19.398438 12.136719 19.398438 12.117188 19.398438 12.101562 C 19.398438 11.972656 19.40625 11.777344 19.433594 11.605469 C 19.507812 11.160156 19.660156 10.8125 19.914062 10.503906 C 20.207031 10.152344 20.546875 10 20.929688 9.941406 C 21.871094 9.796875 22.660156 10.125 22.660156 10.125 L 22.804688 6.933594 C 22.804688 6.933594 22.214844 6.742188 21.238281 6.671875 C 20.546875 6.625 19.9375 6.664062 19.53125 6.738281 Z M 19.53125 6.738281 " fill-opacity="1" fill-rule="nonzero"/></g><g clip-path="url(#bfc6f0e1c3)"><path stroke-linecap="butt" transform="matrix(0.0488759, 0, 0, 0.0488759, 5.225798, 2.924237)" fill="none" stroke-linejoin="miter" d="M 292.689542 78.035341 C 275.026808 81.232216 268.872824 84.189325 258.722747 90.023622 C 247.77345 96.177606 240.180872 102.731199 234.985951 108.006043 C 217.962592 125.588855 214.206264 141.972838 211.009389 154.680416 C 206.214077 173.382134 206.693608 190.964946 206.693608 190.964946 L 206.693608 204.711508 L 170.968531 204.711508 L 170.968531 266.810802 L 206.693608 266.810802 L 206.693608 454.307514 C 217.722826 455.985874 228.99181 456.865014 240.50056 456.865014 C 257.523919 456.865014 274.067746 455.026811 289.972199 451.430327 L 289.972199 266.810802 L 344.319072 266.810802 L 344.319072 204.711508 L 289.972199 204.711508 L 289.972199 191.524399 C 289.972199 191.524399 289.972199 189.126743 289.972199 188.807055 C 289.972199 188.487368 289.972199 188.087759 289.972199 187.768071 C 289.972199 185.130649 290.132042 181.134556 290.691495 177.617993 C 292.210011 168.5069 295.326964 161.393853 300.521886 155.080025 C 306.516026 147.887057 313.469229 144.770104 321.301572 143.571276 C 340.562744 140.614167 356.706962 147.327604 356.706962 147.327604 L 359.664071 82.031434 C 359.664071 82.031434 347.595868 78.115263 327.6154 76.676669 C 313.469229 75.717606 301.001417 76.516825 292.689542 78.035341 Z M 292.689542 78.035341 " stroke="#ffffff" stroke-width="1" stroke-opacity="1" stroke-miterlimit="10"/></g><g fill="#4267b2" fill-opacity="1"><g transform="translate(29.279546, 17.839619)"><g><path d="M 0.3125 0 L 0.3125 -7.203125 L 3.203125 -7.203125 L 3.203125 -5.8125 L 1.765625 -5.8125 L 1.765625 -4.65625 L 3.125 -4.65625 L 3.125 -3.265625 L 1.765625 -3.265625 L 1.765625 0 Z M 0.3125 0 "/></g></g></g><g fill="#4267b2" fill-opacity="1"><g transform="translate(32.624865, 17.839619)"><g><path d="M 1.40625 0.0625 C 0.9375 0.0625 0.613281 -0.09375 0.4375 -0.40625 C 0.257812 -0.71875 0.171875 -1.171875 0.171875 -1.765625 C 0.171875 -2.242188 0.234375 -2.609375 0.359375 -2.859375 C 0.484375 -3.117188 0.65625 -3.304688 0.875 -3.421875 C 1.101562 -3.546875 1.445312 -3.679688 1.90625 -3.828125 L 2.3125 -3.96875 L 2.3125 -4.59375 C 2.3125 -4.757812 2.273438 -4.882812 2.203125 -4.96875 C 2.140625 -5.050781 2.066406 -5.09375 1.984375 -5.09375 C 1.898438 -5.09375 1.828125 -5.054688 1.765625 -4.984375 C 1.710938 -4.921875 1.6875 -4.828125 1.6875 -4.703125 L 1.6875 -4.328125 L 0.265625 -4.328125 L 0.265625 -4.53125 C 0.265625 -5.132812 0.40625 -5.5625 0.6875 -5.8125 C 0.96875 -6.070312 1.425781 -6.203125 2.0625 -6.203125 C 2.570312 -6.203125 2.984375 -6.066406 3.296875 -5.796875 C 3.617188 -5.535156 3.78125 -5.164062 3.78125 -4.6875 L 3.78125 0 L 2.328125 0 L 2.328125 -0.734375 C 2.253906 -0.484375 2.132812 -0.285156 1.96875 -0.140625 C 1.8125 -0.00390625 1.625 0.0625 1.40625 0.0625 Z M 1.984375 -1.078125 C 2.097656 -1.078125 2.175781 -1.117188 2.21875 -1.203125 C 2.269531 -1.296875 2.296875 -1.410156 2.296875 -1.546875 L 2.296875 -3.265625 C 2.078125 -3.179688 1.914062 -3.070312 1.8125 -2.9375 C 1.707031 -2.8125 1.65625 -2.632812 1.65625 -2.40625 L 1.65625 -1.625 C 1.65625 -1.257812 1.765625 -1.078125 1.984375 -1.078125 Z M 1.984375 -1.078125 "/></g></g></g><g fill="#4267b2" fill-opacity="1"><g transform="translate(36.674459, 17.839619)"><g><path d="M 2.140625 0.0625 C 1.460938 0.0625 0.976562 -0.101562 0.6875 -0.4375 C 0.394531 -0.78125 0.25 -1.304688 0.25 -2.015625 L 0.25 -3.90625 C 0.25 -4.4375 0.304688 -4.867188 0.421875 -5.203125 C 0.535156 -5.535156 0.726562 -5.785156 1 -5.953125 C 1.269531 -6.117188 1.644531 -6.203125 2.125 -6.203125 C 2.644531 -6.203125 3.070312 -6.066406 3.40625 -5.796875 C 3.738281 -5.523438 3.90625 -5.140625 3.90625 -4.640625 L 3.90625 -3.703125 L 2.40625 -3.703125 L 2.40625 -4.578125 C 2.40625 -4.734375 2.382812 -4.851562 2.34375 -4.9375 C 2.300781 -5.03125 2.210938 -5.078125 2.078125 -5.078125 C 1.835938 -5.078125 1.71875 -4.90625 1.71875 -4.5625 L 1.71875 -1.578125 C 1.71875 -1.441406 1.742188 -1.320312 1.796875 -1.21875 C 1.859375 -1.125 1.953125 -1.078125 2.078125 -1.078125 C 2.191406 -1.078125 2.273438 -1.125 2.328125 -1.21875 C 2.390625 -1.320312 2.421875 -1.445312 2.421875 -1.59375 L 2.40625 -2.625 L 3.90625 -2.625 L 3.90625 -1.546875 C 3.90625 -1.046875 3.738281 -0.648438 3.40625 -0.359375 C 3.082031 -0.078125 2.660156 0.0625 2.140625 0.0625 Z M 2.140625 0.0625 "/></g></g></g><g fill="#4267b2" fill-opacity="1"><g transform="translate(40.791122, 17.839619)"><g><path d="M 2.015625 0.0625 C 1.378906 0.0625 0.925781 -0.109375 0.65625 -0.453125 C 0.382812 -0.796875 0.25 -1.3125 0.25 -2 L 0.25 -4.46875 C 0.25 -5.03125 0.410156 -5.457031 0.734375 -5.75 C 1.054688 -6.050781 1.507812 -6.203125 2.09375 -6.203125 C 3.269531 -6.203125 3.859375 -5.625 3.859375 -4.46875 L 3.859375 -4.03125 C 3.859375 -3.582031 3.851562 -3.21875 3.84375 -2.9375 L 1.71875 -2.9375 L 1.71875 -1.75 C 1.71875 -1.53125 1.738281 -1.359375 1.78125 -1.234375 C 1.820312 -1.117188 1.914062 -1.0625 2.0625 -1.0625 C 2.175781 -1.0625 2.253906 -1.09375 2.296875 -1.15625 C 2.347656 -1.226562 2.378906 -1.304688 2.390625 -1.390625 C 2.398438 -1.484375 2.40625 -1.613281 2.40625 -1.78125 L 2.40625 -2.375 L 3.859375 -2.375 L 3.859375 -2.015625 C 3.859375 -1.304688 3.71875 -0.78125 3.4375 -0.4375 C 3.164062 -0.101562 2.691406 0.0625 2.015625 0.0625 Z M 2.40625 -3.671875 L 2.40625 -4.453125 C 2.40625 -4.898438 2.296875 -5.125 2.078125 -5.125 C 1.828125 -5.125 1.703125 -4.898438 1.703125 -4.453125 L 1.703125 -3.671875 Z M 2.40625 -3.671875 "/></g></g></g><g fill="#4267b2" fill-opacity="1"><g transform="translate(44.882642, 17.839619)"><g><path d="M 2.671875 0.0625 C 2.265625 0.0625 1.972656 -0.175781 1.796875 -0.65625 L 1.796875 0 L 0.296875 0 L 0.296875 -7.25 L 1.796875 -7.25 L 1.796875 -5.84375 C 2.035156 -6.082031 2.3125 -6.203125 2.625 -6.203125 C 3.101562 -6.203125 3.441406 -6.0625 3.640625 -5.78125 C 3.847656 -5.5 3.953125 -5.09375 3.953125 -4.5625 L 3.953125 -1.609375 C 3.953125 -1.097656 3.847656 -0.691406 3.640625 -0.390625 C 3.429688 -0.0859375 3.109375 0.0625 2.671875 0.0625 Z M 2.171875 -1.078125 C 2.273438 -1.078125 2.347656 -1.109375 2.390625 -1.171875 C 2.429688 -1.234375 2.453125 -1.3125 2.453125 -1.40625 C 2.460938 -1.507812 2.46875 -1.664062 2.46875 -1.875 L 2.46875 -4.4375 C 2.46875 -4.644531 2.445312 -4.800781 2.40625 -4.90625 C 2.375 -5.019531 2.296875 -5.078125 2.171875 -5.078125 C 2.023438 -5.078125 1.925781 -5.019531 1.875 -4.90625 C 1.820312 -4.800781 1.796875 -4.648438 1.796875 -4.453125 L 1.796875 -1.875 C 1.796875 -1.601562 1.816406 -1.398438 1.859375 -1.265625 C 1.910156 -1.140625 2.015625 -1.078125 2.171875 -1.078125 Z M 2.171875 -1.078125 "/></g></g></g><g fill="#4267b2" fill-opacity="1"><g transform="translate(49.083155, 17.839619)"><g><path d="M 2.078125 0.0625 C 0.859375 0.0625 0.25 -0.570312 0.25 -1.84375 L 0.25 -4.296875 C 0.25 -4.878906 0.410156 -5.34375 0.734375 -5.6875 C 1.054688 -6.03125 1.503906 -6.203125 2.078125 -6.203125 C 2.648438 -6.203125 3.097656 -6.03125 3.421875 -5.6875 C 3.753906 -5.34375 3.921875 -4.878906 3.921875 -4.296875 L 3.921875 -1.84375 C 3.921875 -0.570312 3.304688 0.0625 2.078125 0.0625 Z M 2.078125 -1.0625 C 2.191406 -1.0625 2.273438 -1.101562 2.328125 -1.1875 C 2.390625 -1.269531 2.421875 -1.382812 2.421875 -1.53125 L 2.421875 -4.546875 C 2.421875 -4.898438 2.304688 -5.078125 2.078125 -5.078125 C 1.847656 -5.078125 1.734375 -4.898438 1.734375 -4.546875 L 1.734375 -1.53125 C 1.734375 -1.382812 1.757812 -1.269531 1.8125 -1.1875 C 1.875 -1.101562 1.960938 -1.0625 2.078125 -1.0625 Z M 2.078125 -1.0625 "/></g></g></g><g fill="#4267b2" fill-opacity="1"><g transform="translate(53.250125, 17.839619)"><g><path d="M 2.078125 0.0625 C 0.859375 0.0625 0.25 -0.570312 0.25 -1.84375 L 0.25 -4.296875 C 0.25 -4.878906 0.410156 -5.34375 0.734375 -5.6875 C 1.054688 -6.03125 1.503906 -6.203125 2.078125 -6.203125 C 2.648438 -6.203125 3.097656 -6.03125 3.421875 -5.6875 C 3.753906 -5.34375 3.921875 -4.878906 3.921875 -4.296875 L 3.921875 -1.84375 C 3.921875 -0.570312 3.304688 0.0625 2.078125 0.0625 Z M 2.078125 -1.0625 C 2.191406 -1.0625 2.273438 -1.101562 2.328125 -1.1875 C 2.390625 -1.269531 2.421875 -1.382812 2.421875 -1.53125 L 2.421875 -4.546875 C 2.421875 -4.898438 2.304688 -5.078125 2.078125 -5.078125 C 1.847656 -5.078125 1.734375 -4.898438 1.734375 -4.546875 L 1.734375 -1.53125 C 1.734375 -1.382812 1.757812 -1.269531 1.8125 -1.1875 C 1.875 -1.101562 1.960938 -1.0625 2.078125 -1.0625 Z M 2.078125 -1.0625 "/></g></g></g><g fill="#4267b2" fill-opacity="1"><g transform="translate(57.417095, 17.839619)"><g><path d="M 0.296875 0 L 0.296875 -7.25 L 1.75 -7.25 L 1.75 -4.03125 L 2.453125 -6.140625 L 3.96875 -6.140625 L 3.046875 -3.46875 L 4.21875 0 L 2.65625 0 L 1.75 -2.890625 L 1.75 0 Z M 0.296875 0 "/></g></g></g></svg>