<svg xmlns="http://www.w3.org/2000/svg" xmlns:xlink="http://www.w3.org/1999/xlink" width="89" zoomAndPan="magnify" viewBox="0 0 66.75 30.000001" height="40" preserveAspectRatio="xMidYMid meet" version="1.0"><defs><g/><clipPath id="32ab5dc772"><path d="M 7.253906 4.554688 L 23.222656 4.554688 L 23.222656 24.152344 L 7.253906 24.152344 Z M 7.253906 4.554688 " clip-rule="nonzero"/></clipPath></defs><g fill="#000000" fill-opacity="1"><g transform="translate(26.681449, 18.793994)"><g><path d="M 1.203125 0 L 1.203125 -7.5 L 0.109375 -7.5 L 0.109375 -9.28125 L 4.171875 -9.28125 L 4.171875 -7.5 L 3.0625 -7.5 L 3.0625 0 Z M 1.203125 0 "/></g></g></g><g fill="#000000" fill-opacity="1"><g transform="translate(30.95504, 18.793994)"><g><path d="M 0.375 -9.328125 L 2.328125 -9.328125 L 2.328125 -7.125 C 2.523438 -7.695312 2.910156 -7.984375 3.484375 -7.984375 C 4.015625 -7.984375 4.414062 -7.8125 4.6875 -7.46875 C 4.957031 -7.132812 5.09375 -6.675781 5.09375 -6.09375 L 5.09375 0 L 3.203125 0 L 3.203125 -5.96875 C 3.203125 -6.144531 3.160156 -6.285156 3.078125 -6.390625 C 3.003906 -6.492188 2.894531 -6.546875 2.75 -6.546875 C 2.613281 -6.546875 2.507812 -6.488281 2.4375 -6.375 C 2.363281 -6.269531 2.328125 -6.140625 2.328125 -5.984375 L 2.328125 0 L 0.375 0 Z M 0.375 -9.328125 "/></g></g></g><g fill="#000000" fill-opacity="1"><g transform="translate(36.404947, 18.793994)"><g><path d="M 0.375 -7.90625 L 2.265625 -7.90625 L 2.265625 -7.03125 C 2.359375 -7.34375 2.519531 -7.582031 2.75 -7.75 C 2.988281 -7.914062 3.28125 -8 3.625 -8 L 3.625 -6.421875 C 3.363281 -6.421875 3.070312 -6.382812 2.75 -6.3125 C 2.425781 -6.238281 2.265625 -6.148438 2.265625 -6.046875 L 2.265625 0 L 0.375 0 Z M 0.375 -7.90625 "/></g></g></g><g fill="#000000" fill-opacity="1"><g transform="translate(40.117362, 18.793994)"><g><path d="M 2.59375 0.09375 C 1.78125 0.09375 1.195312 -0.128906 0.84375 -0.578125 C 0.488281 -1.023438 0.3125 -1.691406 0.3125 -2.578125 L 0.3125 -5.75 C 0.3125 -6.476562 0.519531 -7.03125 0.9375 -7.40625 C 1.351562 -7.789062 1.9375 -7.984375 2.6875 -7.984375 C 4.207031 -7.984375 4.96875 -7.238281 4.96875 -5.75 L 4.96875 -5.1875 C 4.96875 -4.601562 4.957031 -4.132812 4.9375 -3.78125 L 2.203125 -3.78125 L 2.203125 -2.25 C 2.203125 -1.96875 2.226562 -1.75 2.28125 -1.59375 C 2.34375 -1.445312 2.46875 -1.375 2.65625 -1.375 C 2.800781 -1.375 2.90625 -1.414062 2.96875 -1.5 C 3.03125 -1.582031 3.066406 -1.679688 3.078125 -1.796875 C 3.085938 -1.910156 3.09375 -2.070312 3.09375 -2.28125 L 3.09375 -3.0625 L 4.96875 -3.0625 L 4.96875 -2.609375 C 4.96875 -1.679688 4.785156 -1 4.421875 -0.5625 C 4.066406 -0.125 3.457031 0.09375 2.59375 0.09375 Z M 3.09375 -4.71875 L 3.09375 -5.734375 C 3.09375 -6.304688 2.953125 -6.59375 2.671875 -6.59375 C 2.347656 -6.59375 2.1875 -6.304688 2.1875 -5.734375 L 2.1875 -4.71875 Z M 3.09375 -4.71875 "/></g></g></g><g fill="#000000" fill-opacity="1"><g transform="translate(45.38381, 18.793994)"><g><path d="M 1.8125 0.09375 C 1.195312 0.09375 0.773438 -0.109375 0.546875 -0.515625 C 0.328125 -0.929688 0.21875 -1.515625 0.21875 -2.265625 C 0.21875 -2.890625 0.296875 -3.363281 0.453125 -3.6875 C 0.617188 -4.019531 0.84375 -4.265625 1.125 -4.421875 C 1.414062 -4.578125 1.859375 -4.75 2.453125 -4.9375 L 2.96875 -5.109375 L 2.96875 -5.921875 C 2.96875 -6.128906 2.925781 -6.285156 2.84375 -6.390625 C 2.757812 -6.503906 2.660156 -6.5625 2.546875 -6.5625 C 2.441406 -6.5625 2.351562 -6.515625 2.28125 -6.421875 C 2.207031 -6.328125 2.171875 -6.203125 2.171875 -6.046875 L 2.171875 -5.578125 L 0.328125 -5.578125 L 0.328125 -5.828125 C 0.328125 -6.609375 0.507812 -7.160156 0.875 -7.484375 C 1.238281 -7.816406 1.832031 -7.984375 2.65625 -7.984375 C 3.3125 -7.984375 3.84375 -7.8125 4.25 -7.46875 C 4.664062 -7.132812 4.875 -6.65625 4.875 -6.03125 L 4.875 0 L 2.984375 0 L 2.984375 -0.9375 C 2.890625 -0.613281 2.738281 -0.359375 2.53125 -0.171875 C 2.332031 0.00390625 2.09375 0.09375 1.8125 0.09375 Z M 2.5625 -1.375 C 2.707031 -1.375 2.804688 -1.429688 2.859375 -1.546875 C 2.921875 -1.671875 2.953125 -1.820312 2.953125 -2 L 2.953125 -4.203125 C 2.671875 -4.085938 2.460938 -3.945312 2.328125 -3.78125 C 2.203125 -3.625 2.140625 -3.394531 2.140625 -3.09375 L 2.140625 -2.078125 C 2.140625 -1.609375 2.28125 -1.375 2.5625 -1.375 Z M 2.5625 -1.375 "/></g></g></g><g fill="#000000" fill-opacity="1"><g transform="translate(50.596293, 18.793994)"><g><path d="M 1.9375 0.09375 C 1.46875 0.09375 1.117188 -0.015625 0.890625 -0.234375 C 0.660156 -0.460938 0.503906 -0.753906 0.421875 -1.109375 C 0.347656 -1.472656 0.3125 -1.941406 0.3125 -2.515625 L 0.328125 -6.078125 C 0.328125 -6.640625 0.46875 -7.097656 0.75 -7.453125 C 1.039062 -7.804688 1.445312 -7.984375 1.96875 -7.984375 C 2.476562 -7.984375 2.859375 -7.816406 3.109375 -7.484375 L 3.109375 -9.328125 L 5 -9.328125 L 5 0 L 3.109375 0 L 3.109375 -0.84375 C 3.003906 -0.53125 2.859375 -0.296875 2.671875 -0.140625 C 2.484375 0.015625 2.238281 0.09375 1.9375 0.09375 Z M 2.65625 -1.390625 C 2.84375 -1.390625 2.960938 -1.476562 3.015625 -1.65625 C 3.078125 -1.84375 3.109375 -2.09375 3.109375 -2.40625 L 3.109375 -5.71875 C 3.109375 -5.945312 3.078125 -6.140625 3.015625 -6.296875 C 2.953125 -6.453125 2.835938 -6.53125 2.671875 -6.53125 C 2.484375 -6.53125 2.359375 -6.457031 2.296875 -6.3125 C 2.234375 -6.164062 2.203125 -5.96875 2.203125 -5.71875 L 2.203125 -2.390625 C 2.203125 -1.722656 2.351562 -1.390625 2.65625 -1.390625 Z M 2.65625 -1.390625 "/></g></g></g><g fill="#000000" fill-opacity="1"><g transform="translate(55.970658, 18.793994)"><g><path d="M 2.546875 0.09375 C 0.984375 0.09375 0.203125 -0.695312 0.203125 -2.28125 L 0.21875 -2.921875 L 2.109375 -2.921875 L 2.109375 -1.984375 C 2.109375 -1.796875 2.144531 -1.65625 2.21875 -1.5625 C 2.289062 -1.46875 2.410156 -1.421875 2.578125 -1.421875 C 2.828125 -1.421875 2.953125 -1.625 2.953125 -2.03125 C 2.953125 -2.332031 2.894531 -2.566406 2.78125 -2.734375 C 2.664062 -2.910156 2.476562 -3.097656 2.21875 -3.296875 L 1.203125 -4.078125 C 0.859375 -4.335938 0.609375 -4.609375 0.453125 -4.890625 C 0.304688 -5.179688 0.234375 -5.582031 0.234375 -6.09375 C 0.234375 -6.5 0.335938 -6.84375 0.546875 -7.125 C 0.765625 -7.414062 1.050781 -7.628906 1.40625 -7.765625 C 1.757812 -7.910156 2.148438 -7.984375 2.578125 -7.984375 C 4.109375 -7.984375 4.875 -7.222656 4.875 -5.703125 L 4.875 -5.546875 L 2.921875 -5.546875 L 2.921875 -5.859375 C 2.921875 -6.035156 2.890625 -6.191406 2.828125 -6.328125 C 2.773438 -6.460938 2.675781 -6.53125 2.53125 -6.53125 C 2.394531 -6.53125 2.289062 -6.492188 2.21875 -6.421875 C 2.15625 -6.347656 2.125 -6.242188 2.125 -6.109375 C 2.125 -5.816406 2.238281 -5.59375 2.46875 -5.4375 L 3.625 -4.59375 C 4.039062 -4.28125 4.359375 -3.941406 4.578125 -3.578125 C 4.804688 -3.210938 4.921875 -2.753906 4.921875 -2.203125 C 4.921875 -1.460938 4.710938 -0.894531 4.296875 -0.5 C 3.878906 -0.101562 3.296875 0.09375 2.546875 0.09375 Z M 2.546875 0.09375 "/></g></g></g><g clip-path="url(#32ab5dc772)"><path fill="#231f20" d="M 23.226562 11.996094 L 23.109375 11.476562 C 22.175781 7.304688 19.125 4.613281 15.34375 4.613281 C 12.976562 4.613281 10.855469 5.664062 9.367188 7.570312 C 7.992188 9.324219 7.265625 11.675781 7.265625 14.367188 C 7.265625 20.113281 10.589844 24.125 15.34375 24.125 C 19.863281 24.125 23.019531 21.949219 23.019531 18.832031 C 23.019531 16.957031 21.824219 15.371094 19.730469 14.457031 C 19.734375 14.371094 19.734375 14.28125 19.734375 14.1875 C 19.734375 13.144531 19.5625 12.210938 19.21875 11.417969 C 18.503906 9.75 17.089844 8.792969 15.339844 8.792969 C 13.59375 8.792969 12.179688 9.75 11.464844 11.417969 L 11.257812 11.90625 C 11.222656 11.988281 11.222656 12.078125 11.253906 12.160156 C 11.285156 12.238281 11.347656 12.304688 11.429688 12.339844 L 12.402344 12.757812 C 12.570312 12.828125 12.761719 12.753906 12.832031 12.585938 L 13.042969 12.097656 C 13.484375 11.0625 14.28125 10.511719 15.339844 10.511719 C 16.402344 10.511719 17.199219 11.0625 17.644531 12.097656 C 17.863281 12.609375 17.988281 13.214844 18.011719 13.910156 C 17.179688 13.726562 16.285156 13.632812 15.339844 13.632812 C 12.757812 13.632812 10.953125 14.929688 10.953125 16.789062 C 10.953125 17.710938 11.421875 18.539062 12.273438 19.121094 C 13.0625 19.65625 14.121094 19.941406 15.339844 19.941406 C 17.339844 19.941406 18.898438 18.535156 19.488281 16.242188 C 20.664062 16.875 21.304688 17.785156 21.304688 18.832031 C 21.304688 19.757812 20.789062 20.617188 19.851562 21.257812 C 18.746094 22.007812 17.1875 22.40625 15.34375 22.40625 C 11.597656 22.40625 8.984375 19.101562 8.984375 14.367188 C 8.984375 12.066406 9.582031 10.082031 10.71875 8.628906 C 11.875 7.148438 13.515625 6.332031 15.34375 6.332031 C 18.335938 6.332031 20.671875 8.445312 21.4375 11.855469 L 21.554688 12.371094 C 21.59375 12.546875 21.765625 12.660156 21.945312 12.621094 L 22.980469 12.386719 C 23.0625 12.367188 23.136719 12.316406 23.183594 12.242188 C 23.230469 12.167969 23.246094 12.078125 23.226562 11.996094 Z M 15.339844 18.222656 C 14.480469 18.222656 13.734375 18.039062 13.238281 17.699219 C 12.859375 17.441406 12.667969 17.132812 12.667969 16.789062 C 12.667969 15.96875 13.820312 15.351562 15.34375 15.351562 C 16.253906 15.351562 17.101562 15.449219 17.867188 15.636719 C 17.507812 17.238281 16.558594 18.222656 15.339844 18.222656 Z M 15.339844 18.222656 " fill-opacity="1" fill-rule="nonzero"/></g></svg>